<svg xmlns="http://www.w3.org/2000/svg" width="640" height="424" viewBox="0 0 640 424"><defs><style>.a{fill:#fff;}.b{fill:#ffca00;}.c{fill:#003c78;}.d{fill:#22a538;}</style></defs><g transform="translate(-640 -2467)"><rect class="a" width="640" height="424" transform="translate(640 2467)"/><g transform="translate(989.306 2595)"><path class="a" d="M-267.022-473.442c-.987,0-24.343-.274-37.637-24.113l-.066-.12a104.844,104.844,0,0,1-11.917-35.535,88.267,88.267,0,0,1,1.237-31A87.4,87.4,0,0,1-298.642-599.7l.306-.362c.186-.221.373-.441.564-.658,15.479-17.51,39.038-27.554,64.635-27.554a97.638,97.638,0,0,1,34.279,6.223s.867.318,1.317.5l.121.047c.465.181.93.362,1.394.552A108.577,108.577,0,0,1-166.87-603.8h.114l2.612,2.389a69.721,69.721,0,0,1,8.761,9.555,24.211,24.211,0,0,1,2.858,4.39l.181.368,27.462,71.714.147.678a74.567,74.567,0,0,1,1.5,10.254c.046.625.089,1.251.129,1.872.172,2.661.257,7.021.261,7.206l0,.173a21.776,21.776,0,0,1-21.752,21.752Z" transform="translate(317.464 628.279)"/><path class="b" d="M-120.87-542.629H-176.4a26.558,26.558,0,0,0-4.082,14.137,26.556,26.556,0,0,0,3.8,13.682h66.814Z" transform="translate(286.083 608.656)"/><path class="c" d="M-108.736-506.543H-175.55A26.743,26.743,0,0,0-152.6-493.468h48.969c-.18-.49-.328-.991-.52-1.478Z" transform="translate(284.952 600.389)"/><path class="b" d="M-138.424-445.009a12.652,12.652,0,0,0,12.653-12.653s-.082-4.307-.243-6.793H-290.546c10.844,19.446,29.69,19.446,29.69,19.446Z" transform="translate(311.297 590.747)"/><path class="c" d="M-129.381-475.887a65.084,65.084,0,0,0-1.322-9h-51.482a35.394,35.394,0,0,1-32.583-21.66H-304.7A95.257,95.257,0,0,0-293.789-474.1h164.532C-129.3-474.692-129.337-475.291-129.381-475.887Z" transform="translate(314.54 600.389)"/><path class="b" d="M-214.777-542.629h-89.04a79.044,79.044,0,0,0-1.105,27.819h89.933a35.145,35.145,0,0,1-2.759-13.681A35.113,35.113,0,0,1-214.777-542.629Z" transform="translate(314.761 608.656)"/><path class="b" d="M-186.279-591.993h23.864c-6.069-5.554-15.419-12.247-29.176-17.842-.466-.191-.934-.372-1.4-.553-.4-.156-1.169-.439-1.169-.439-32.717-12.223-68.725-4.008-88.917,18.834Z" transform="translate(309.586 625.575)"/><path class="d" d="M-124.649-559h-27.866a26.736,26.736,0,0,0-22.675,12.62h55.533C-121.541-551.145-123.261-555.493-124.649-559Z" transform="translate(284.869 612.407)"/><path class="d" d="M-167.037-584.717H-287.7c-.227.257-.445.523-.668.783a77.9,77.9,0,0,0-14.9,31.663h89.04a35.379,35.379,0,0,1,32.371-21.205h24.414a15.987,15.987,0,0,0-1.894-2.84A60.214,60.214,0,0,0-167.037-584.717Z" transform="translate(314.212 618.299)"/></g><path class="c" d="M-481.8-604.532h3.084v14.273c0,5.214,2.672,8.386,8.152,8.386a13.467,13.467,0,0,0,4.716-.762l-.412-5.132a7.411,7.411,0,0,1-2.171.323c-2.179,0-3.266-.909-3.266-3.038v-14.05h6.126v-5.256h-6.126V-616.5l-6.711.6v6.114H-481.8Zm35.712,43.543a11.509,11.509,0,0,0-7.558,2.722V-560.7l-6.13.4v27.326h7.077v-19.676a5.884,5.884,0,0,1,4.625-2.083c2.9,0,4.436,1.224,4.436,4.258v17.5h7.031v-17.5c0-6.834-3.666-10.515-9.48-10.515m7.789-34.976c0-10.061-3.811-14.319-12.556-14.319-8.7,0-12.6,4.258-12.6,14.319,0,10.107,3.9,14.269,12.6,14.269,8.744,0,12.556-4.162,12.556-14.269m-17.866,0c0-6.711,1.413-8.525,5.31-8.525,3.858,0,5.26,1.813,5.26,8.525s-1.4,8.521-5.26,8.521-5.31-1.775-5.31-8.521m29.282-6.03a5.88,5.88,0,0,1,4.632-2.087c2.9,0,4.432,1.233,4.432,4.259v17.5h7.031v-17.5c0-6.842-3.67-10.507-9.476-10.507a11.454,11.454,0,0,0-7.566,2.714v-2.433l-6.13.4v27.334h7.077Zm-47.2,41.006a11.5,11.5,0,0,0-7.562,2.722V-560.7l-6.122.4v27.326h7.069v-19.676a5.875,5.875,0,0,1,4.62-2.083c2.9,0,4.451,1.224,4.451,4.258v17.5h7.011v-17.5c0-6.834-3.662-10.515-9.468-10.515m52.373,0a23.833,23.833,0,0,0-9.43,1.817l.589,5.614a18.062,18.062,0,0,1,7.574-1.489c3.762,0,5.206,1.266,5.206,4.035v1.583a17.539,17.539,0,0,0-5.248-.762c-6.264,0-9.8,3.481-9.8,8.563,0,6.164,3.319,9.11,8.525,9.11a9.447,9.447,0,0,0,7.435-3.131l.127.042v2.634h5.949v-17c0-7.519-2.818-11.015-10.924-11.015m3.939,19.675c0,1.768-2.168,3.219-4.571,3.219-2.31,0-3.909-.947-3.909-3.627,0-2.4,1.467-3.623,4.586-3.623a11.262,11.262,0,0,1,3.893.589Zm-116.319-16.225c0-1.813,1.139-3.269,5.352-3.269a27.349,27.349,0,0,1,8.2,1.455l.958-6.442a26.365,26.365,0,0,0-9.514-1.76c-8.621,0-12.337,4.663-12.337,10.419,0,11.374,15.644,9.117,15.644,14.465,0,2.349-1.64,3.708-5.356,3.708a19.866,19.866,0,0,1-9.425-2.487l-.99,6.572a22.249,22.249,0,0,0,10.507,2.542c7.943,0,12.6-4.128,12.6-10.835,0-11.52-15.64-9.067-15.64-14.37m2.892-24.781-11.879-34h-9.1l-11.74,34h8.063l1.9-6.619h12.337l1.9,6.619Zm-20.892-13.014,4.355-15.228h.139l4.17,15.228Zm48.642,34.4c-8.252,0-12.109,5.125-12.109,13.868,0,9.611,4.224,14.593,13.7,14.593a22.526,22.526,0,0,0,8.976-1.76l-.77-5.668A20.047,20.047,0,0,1-501-538.553c-4.709,0-6.938-1.713-7.3-6.3h16a26.21,26.21,0,0,0,.181-3.311c0-8.7-4.312-12.775-11.331-12.775m-4.99,11.424c.323-3.993,1.64-5.583,5.036-5.583,2.945,0,4.763,1.539,4.851,5.583Zm23.86-60.328a10.658,10.658,0,0,0-3-.4c-3.122,0-5.8,1.633-7.527,4.94h-.139v-4.6l-.628.031-5.614.265v27.291h7.065V-596.1c0-4.578,2.714-7.25,6.384-7.25a10.148,10.148,0,0,1,3,.451Zm-20.437.054H-512.5l-4.485,16.676-.866,3.534h-.135l-1.178-3.446-5.984-16.765h-8.021l11.836,26.83-.146.362a4.007,4.007,0,0,1-4.212,2.63,7.255,7.255,0,0,1-2.853-.594l-.539,4.994a11.914,11.914,0,0,0,4.666.859c4.709,0,7.928-2.268,9.969-7.843Z" transform="translate(1363.232 3220.58)"/><g transform="translate(778.271 2702.876)"><g transform="translate(151.552 8.711)"><path class="c" d="M-382.709-449.311a15.306,15.306,0,0,1-5.46-.86,8.554,8.554,0,0,1-3.693-2.674,11.444,11.444,0,0,1-2.107-4.6,29.459,29.459,0,0,1-.657-6.684q0-6.343,2.65-9.629t8-3.286a11.758,11.758,0,0,1,4.146.7,8.2,8.2,0,0,1,3.24,2.2,10.262,10.262,0,0,1,2.107,3.829,18.468,18.468,0,0,1,.748,5.6c0,.211-.009.446-.023.7a6.434,6.434,0,0,1-.068.656h-18.034a23.129,23.129,0,0,0,.613,5.394,8.542,8.542,0,0,0,1.727,3.521,6.531,6.531,0,0,0,2.908,1.918,13.131,13.131,0,0,0,4.157.586,14.725,14.725,0,0,0,3.907-.486,18.254,18.254,0,0,0,3.5-1.371l.362,2.4a15.667,15.667,0,0,1-3.693,1.54A16.22,16.22,0,0,1-382.709-449.311Zm6.434-16.041a14.389,14.389,0,0,0-.636-4.283,7.812,7.812,0,0,0-1.613-2.863,6,6,0,0,0-2.408-1.6,9.059,9.059,0,0,0-3.068-.5q-4,0-5.84,2.3t-2.068,6.943Z" transform="translate(394.626 477.043)"/></g><path class="c" d="M-487.1-449.687h2.761V-476.52l-2.761.227Z" transform="translate(567.363 485.634)"/><path class="c" d="M-510.619-458.175c0,4.574,2.214,6.753,6.392,6.753a9.173,9.173,0,0,0,3.215-.547l-.227-2.176a6.716,6.716,0,0,1-2.263.362c-2.677,0-4.355-1.267-4.355-4.486v-18.085h7.031v-2.225h-7.031v-7.293l-2.715.323v6.97h-4.216v2.225h4.17Z" transform="translate(573.707 487.776)"/><path class="c" d="M-534.13-451.654a12.464,12.464,0,0,1-7.659-2.538l-.45,2.5a13.322,13.322,0,0,0,8.148,2.444c6.214,0,8.979-3.219,8.979-8.066,0-9.43-14.37-6.122-14.37-12.783,0-2.719,2.4-4.443,6.218-4.443a16.818,16.818,0,0,1,6.8,1.5l.266-2.4a15.768,15.768,0,0,0-7.031-1.54c-5.752,0-8.878,2.672-8.878,7.019,0,8.845,14.416,5.764,14.416,12.922,0,3.08-1.91,5.395-6.438,5.395" transform="translate(579.995 485.742)"/><path class="c" d="M-438.652-449.119c6.718,0,9.93-3.353,9.93-8.979V-476.41h-2.722v18.223c0,4.22-2.492,6.438-7.208,6.438s-7.154-2.268-7.154-6.438V-476.41h-2.714V-458.1c0,5.575,3.211,8.979,9.868,8.979" transform="translate(558.525 485.609)"/><path class="c" d="M-485.844-484.485a1.921,1.921,0,0,0,1.926-1.925,1.925,1.925,0,0,0-1.926-1.933,1.924,1.924,0,0,0-1.929,1.933,1.919,1.919,0,0,0,1.929,1.925" transform="translate(567.517 488.343)"/><path class="c" d="M-412.721-458.175c0,4.574,2.206,6.753,6.376,6.753a9.346,9.346,0,0,0,3.238-.547l-.243-2.176a6.73,6.73,0,0,1-2.263.362c-2.673,0-4.359-1.267-4.359-4.486v-18.085h7.031v-2.225h-7.031v-7.293l-2.707.323v6.97h-4.217v2.225h4.174Z" transform="translate(551.279 487.776)"/><path class="c" d="M-469.753-458.175c0,4.574,2.214,6.753,6.384,6.753a9.076,9.076,0,0,0,3.215-.547l-.216-2.176a6.849,6.849,0,0,1-2.272.362c-2.668,0-4.347-1.267-4.347-4.486v-18.085h7.024v-2.225h-7.024v-7.293l-2.726.323v6.97h-4.208v2.225h4.17Z" transform="translate(564.344 487.776)"/><rect class="c" width="2.722" height="33.998" transform="translate(0 1.949)"/><path class="c" d="M-559.435-467.834v18.039h2.711V-467.88c0-6.164-3.438-9.11-9.1-9.11a10.615,10.615,0,0,0-7.982,3.388v-3.134l-2.718.242v26.7h2.718v-20.938c1.5-2.356,4.675-3.63,7.3-3.63,4.54,0,7.073,1.948,7.073,6.53" transform="translate(587.851 485.742)"/></g><path class="c" d="M-611.81-404.58v1.294a.179.179,0,0,1-.2.2H-615.9a.071.071,0,0,0-.081.08v12.176a.179.179,0,0,1-.2.2h-1.537a.179.179,0,0,1-.2-.2V-403a.072.072,0,0,0-.081-.08h-3.7a.179.179,0,0,1-.2-.2v-1.294a.179.179,0,0,1,.2-.2h9.689A.179.179,0,0,1-611.81-404.58Z" transform="translate(1376.517 3172.076)"/><path class="c" d="M-606.47-390.12a3.974,3.974,0,0,1-1.557-2.114,7.773,7.773,0,0,1-.364-2.468,7.445,7.445,0,0,1,.344-2.427,3.975,3.975,0,0,1,1.557-2.094,4.594,4.594,0,0,1,2.65-.758,4.316,4.316,0,0,1,2.539.758,4.149,4.149,0,0,1,1.547,2.073,7.3,7.3,0,0,1,.364,2.428,7.729,7.729,0,0,1-.364,2.488,4.013,4.013,0,0,1-1.537,2.114,4.389,4.389,0,0,1-2.569.759A4.518,4.518,0,0,1-606.47-390.12Zm4.026-1.376a2.493,2.493,0,0,0,.87-1.284,6.944,6.944,0,0,0,.222-1.9,7.356,7.356,0,0,0-.2-1.882,2.489,2.489,0,0,0-.87-1.284,2.4,2.4,0,0,0-1.476-.455,2.327,2.327,0,0,0-1.436.455,2.491,2.491,0,0,0-.87,1.284,6.474,6.474,0,0,0-.222,1.882,6.679,6.679,0,0,0,.222,1.9,2.359,2.359,0,0,0,.86,1.284,2.43,2.43,0,0,0,1.486.456A2.3,2.3,0,0,0-602.444-391.5Z" transform="translate(1373.421 3170.976)"/><path class="c" d="M-580.283-399.034a3.528,3.528,0,0,1,.89,2.559v6.755a.178.178,0,0,1-.2.2h-1.517a.179.179,0,0,1-.2-.2v-6.351a2.267,2.267,0,0,0-.556-1.608,1.937,1.937,0,0,0-1.487-.6,2.052,2.052,0,0,0-1.517.586,2.133,2.133,0,0,0-.587,1.577v6.392a.179.179,0,0,1-.2.2h-1.517a.179.179,0,0,1-.2-.2v-6.351a2.266,2.266,0,0,0-.557-1.608,1.935,1.935,0,0,0-1.486-.6,1.95,1.95,0,0,0-1.486.586,2.2,2.2,0,0,0-.557,1.577v6.392a.179.179,0,0,1-.2.2h-1.537a.179.179,0,0,1-.2-.2v-9.891a.179.179,0,0,1,.2-.2h1.537a.179.179,0,0,1,.2.2v.688a.067.067,0,0,0,.03.06c.02.013.044.008.071-.019a3.17,3.17,0,0,1,2.589-1.072,3.648,3.648,0,0,1,1.759.394,2.741,2.741,0,0,1,1.133,1.163c.04.055.081.055.121,0a3.032,3.032,0,0,1,1.284-1.173,4.033,4.033,0,0,1,1.77-.384A3.218,3.218,0,0,1-580.283-399.034Z" transform="translate(1369.989 3170.97)"/><path class="c" d="M-570.394-390.12a3.978,3.978,0,0,1-1.557-2.114,7.775,7.775,0,0,1-.364-2.468,7.445,7.445,0,0,1,.344-2.427,3.979,3.979,0,0,1,1.557-2.094,4.594,4.594,0,0,1,2.65-.758,4.314,4.314,0,0,1,2.539.758,4.148,4.148,0,0,1,1.547,2.073,7.3,7.3,0,0,1,.364,2.428,7.731,7.731,0,0,1-.364,2.488,4.013,4.013,0,0,1-1.537,2.114,4.389,4.389,0,0,1-2.569.759A4.52,4.52,0,0,1-570.394-390.12Zm4.026-1.376a2.492,2.492,0,0,0,.869-1.284,6.942,6.942,0,0,0,.222-1.9,7.356,7.356,0,0,0-.2-1.882,2.49,2.49,0,0,0-.87-1.284,2.4,2.4,0,0,0-1.476-.455,2.327,2.327,0,0,0-1.436.455,2.49,2.49,0,0,0-.87,1.284,6.443,6.443,0,0,0-.223,1.882,6.648,6.648,0,0,0,.223,1.9,2.358,2.358,0,0,0,.859,1.284,2.432,2.432,0,0,0,1.486.456A2.3,2.3,0,0,0-566.368-391.5Z" transform="translate(1365.156 3170.976)"/><path class="c" d="M-551.65-399.639a.187.187,0,0,1,.1.243l-.324,1.517c-.013.121-.094.162-.242.121a2.127,2.127,0,0,0-.809-.142l-.283.021a2.27,2.27,0,0,0-1.568.657,2.179,2.179,0,0,0-.617,1.608v5.906a.179.179,0,0,1-.2.2h-1.537a.179.179,0,0,1-.2-.2V-399.6a.179.179,0,0,1,.2-.2h1.537a.179.179,0,0,1,.2.2v1.072c0,.041.01.064.03.071s.037,0,.051-.03a2.819,2.819,0,0,1,2.488-1.416A2.591,2.591,0,0,1-551.65-399.639Z" transform="translate(1361.724 3170.958)"/><path class="c" d="M-541.916-399.639a.187.187,0,0,1,.1.243l-.324,1.517c-.013.121-.094.162-.243.121a2.121,2.121,0,0,0-.809-.142l-.284.021a2.268,2.268,0,0,0-1.567.657,2.178,2.178,0,0,0-.617,1.608v5.906a.179.179,0,0,1-.2.2H-547.4a.179.179,0,0,1-.2-.2V-399.6a.179.179,0,0,1,.2-.2h1.537a.179.179,0,0,1,.2.2v1.072c0,.041.01.064.03.071s.037,0,.051-.03a2.819,2.819,0,0,1,2.488-1.416A2.591,2.591,0,0,1-541.916-399.639Z" transform="translate(1359.494 3170.958)"/><path class="c" d="M-536.574-390.12a3.974,3.974,0,0,1-1.557-2.114,7.776,7.776,0,0,1-.365-2.468,7.467,7.467,0,0,1,.344-2.427,3.977,3.977,0,0,1,1.558-2.094,4.591,4.591,0,0,1,2.65-.758,4.316,4.316,0,0,1,2.539.758,4.157,4.157,0,0,1,1.547,2.073,7.32,7.32,0,0,1,.364,2.428,7.751,7.751,0,0,1-.364,2.488,4.014,4.014,0,0,1-1.538,2.114,4.389,4.389,0,0,1-2.569.759A4.516,4.516,0,0,1-536.574-390.12Zm4.025-1.376a2.484,2.484,0,0,0,.87-1.284,6.913,6.913,0,0,0,.223-1.9,7.392,7.392,0,0,0-.2-1.882,2.5,2.5,0,0,0-.87-1.284,2.392,2.392,0,0,0-1.476-.455,2.328,2.328,0,0,0-1.436.455,2.49,2.49,0,0,0-.87,1.284,6.445,6.445,0,0,0-.223,1.882,6.65,6.65,0,0,0,.223,1.9,2.357,2.357,0,0,0,.86,1.284,2.431,2.431,0,0,0,1.486.456A2.294,2.294,0,0,0-532.549-391.5Z" transform="translate(1357.408 3170.976)"/><path class="c" d="M-522.313-389.638l-2.912-9.911-.02-.061c0-.108.067-.162.2-.162h1.577a.209.209,0,0,1,.224.182l1.921,7.342c.013.027.03.041.051.041s.037-.014.05-.041l1.962-7.342a.208.208,0,0,1,.223-.182h1.4a.209.209,0,0,1,.223.182l2,7.322c.013.027.03.041.051.041s.037-.014.05-.041l2-7.322a.208.208,0,0,1,.222-.182l1.558.02a.186.186,0,0,1,.152.061.188.188,0,0,1,.03.162l-2.932,9.891a.222.222,0,0,1-.223.162h-1.578a.221.221,0,0,1-.222-.162l-1.983-6.836c-.013-.027-.03-.041-.05-.041s-.037.014-.051.041l-1.881,6.816a.208.208,0,0,1-.223.182h-1.6A.222.222,0,0,1-522.313-389.638Z" transform="translate(1354.373 3170.928)"/><path class="c" d="M-501.946-404.711a.171.171,0,0,1,.01.171l-1.577,3.884a.223.223,0,0,1-.223.162h-1.153a.184.184,0,0,1-.152-.061.185.185,0,0,1-.031-.162l1.173-3.9a.235.235,0,0,1,.243-.162h1.557A.173.173,0,0,1-501.946-404.711Z" transform="translate(1349.752 3172.076)"/><path class="c" d="M-499.307-389.748a3.345,3.345,0,0,1-1.426-1,2.209,2.209,0,0,1-.506-1.407v-.222a.179.179,0,0,1,.2-.2h1.456a.179.179,0,0,1,.2.2v.1a1.2,1.2,0,0,0,.617.991,2.7,2.7,0,0,0,1.567.425,2.534,2.534,0,0,0,1.477-.395,1.18,1.18,0,0,0,.566-1,.949.949,0,0,0-.526-.88,8.3,8.3,0,0,0-1.7-.617,15.78,15.78,0,0,1-1.931-.657,3.582,3.582,0,0,1-1.315-.951,2.333,2.333,0,0,1-.536-1.587A2.555,2.555,0,0,1-500.1-399.1a4.575,4.575,0,0,1,2.821-.8,5.379,5.379,0,0,1,2.074.374,3.162,3.162,0,0,1,1.385,1.042,2.481,2.481,0,0,1,.486,1.5v.061a.179.179,0,0,1-.2.2h-1.415a.179.179,0,0,1-.2-.2v-.061a1.159,1.159,0,0,0-.576-.981,2.742,2.742,0,0,0-1.568-.395,2.719,2.719,0,0,0-1.446.344,1.051,1.051,0,0,0-.556.931.965.965,0,0,0,.536.89,8.608,8.608,0,0,0,1.729.648,18.81,18.81,0,0,1,1.952.637,3.493,3.493,0,0,1,1.325.93,2.339,2.339,0,0,1,.546,1.608,2.586,2.586,0,0,1-1.082,2.185,4.7,4.7,0,0,1-2.882.809A5.785,5.785,0,0,1-499.307-389.748Z" transform="translate(1348.873 3170.958)"/><path class="c" d="M-474.327-394.095a.179.179,0,0,1-.2.2h-6.452a.071.071,0,0,0-.081.08,3.5,3.5,0,0,0,.121,1.052,2.156,2.156,0,0,0,.9,1.264,3,3,0,0,0,1.71.456,2.6,2.6,0,0,0,2.3-1.233c.068-.135.156-.156.264-.061l1.153.769a.192.192,0,0,1,.061.263,3.923,3.923,0,0,1-1.608,1.436,5.155,5.155,0,0,1-2.357.526,4.516,4.516,0,0,1-2.488-.648,3.94,3.94,0,0,1-1.517-1.84,7.686,7.686,0,0,1-.485-2.892,8.6,8.6,0,0,1,.222-2.245,3.873,3.873,0,0,1,1.456-2.206,4.33,4.33,0,0,1,2.65-.808,4.127,4.127,0,0,1,3.054,1.021,4.917,4.917,0,0,1,1.234,3A15.994,15.994,0,0,1-474.327-394.095Zm-5.784-3.772a2.148,2.148,0,0,0-.769,1.163,4.711,4.711,0,0,0-.181,1.132.071.071,0,0,0,.081.081h4.632a.072.072,0,0,0,.081-.081,6,6,0,0,0-.122-.991,2.3,2.3,0,0,0-.8-1.264,2.312,2.312,0,0,0-1.487-.475A2.287,2.287,0,0,0-480.111-397.867Z" transform="translate(1344.695 3170.976)"/><path class="c" d="M-462.065-404.782h1.538a.179.179,0,0,1,.2.2v13.754a.179.179,0,0,1-.2.2h-1.538a.179.179,0,0,1-.2-.2v-.667a.069.069,0,0,0-.03-.061c-.021-.014-.044-.007-.071.02a3.177,3.177,0,0,1-1.052.789,3.083,3.083,0,0,1-1.315.283,3.924,3.924,0,0,1-2.417-.718,4.085,4.085,0,0,1-1.406-2.032,7.714,7.714,0,0,1-.384-2.589,8.2,8.2,0,0,1,.324-2.448,4.121,4.121,0,0,1,1.4-2.083,3.957,3.957,0,0,1,2.488-.748,3.2,3.2,0,0,1,1.3.272,3.027,3.027,0,0,1,1.062.779c.027.027.05.034.071.02a.068.068,0,0,0,.03-.061v-4.511A.179.179,0,0,1-462.065-404.782Zm-.242,9a5.336,5.336,0,0,0-.506-2.59,1.871,1.871,0,0,0-1.72-1.031,1.959,1.959,0,0,0-1.8.971,4.891,4.891,0,0,0-.647,2.67,5.334,5.334,0,0,0,.506,2.508,2.007,2.007,0,0,0,1.921,1.112,1.929,1.929,0,0,0,1.78-1.092A5.463,5.463,0,0,0-462.307-395.781Z" transform="translate(1341.474 3172.076)"/><path class="c" d="M-447.777-399.771h1.517a.179.179,0,0,1,.2.2v9.891a.179.179,0,0,1-.2.2h-1.517a.179.179,0,0,1-.2-.2v-.748a.047.047,0,0,0-.03-.051c-.02-.007-.044,0-.071.03a2.87,2.87,0,0,1-2.488,1.113,4.348,4.348,0,0,1-1.831-.384,3.2,3.2,0,0,1-1.344-1.133,3.171,3.171,0,0,1-.506-1.821v-6.9a.179.179,0,0,1,.2-.2h1.517a.179.179,0,0,1,.2.2v6.291a2.357,2.357,0,0,0,.557,1.659,2.02,2.02,0,0,0,1.567.607,2.168,2.168,0,0,0,1.618-.617,2.25,2.25,0,0,0,.607-1.649v-6.291A.179.179,0,0,1-447.777-399.771Z" transform="translate(1338.108 3170.928)"/><path class="c" d="M-438.542-390.14a3.913,3.913,0,0,1-1.5-2.114,8.106,8.106,0,0,1-.3-2.448,8.883,8.883,0,0,1,.3-2.448,3.843,3.843,0,0,1,1.507-2.062,4.459,4.459,0,0,1,2.619-.769,4.6,4.6,0,0,1,2.65.769,3.517,3.517,0,0,1,1.477,1.941,2.847,2.847,0,0,1,.162.667.2.2,0,0,1-.183.2l-1.516.223h-.041c-.094,0-.161-.061-.2-.182l-.061-.324a1.976,1.976,0,0,0-.789-1.153,2.473,2.473,0,0,0-1.517-.466,2.352,2.352,0,0,0-1.476.466,2.122,2.122,0,0,0-.789,1.233,8.228,8.228,0,0,0-.181,1.923,8.1,8.1,0,0,0,.181,1.9,2.253,2.253,0,0,0,.8,1.275,2.313,2.313,0,0,0,1.466.465,2.521,2.521,0,0,0,1.527-.465,1.984,1.984,0,0,0,.8-1.214.047.047,0,0,0,.01-.05.043.043,0,0,1,.01-.05v-.082a.17.17,0,0,1,.222-.121l1.517.242q.162.042.162.162v.082a1.3,1.3,0,0,1-.1.445,3.426,3.426,0,0,1-1.477,1.982,4.689,4.689,0,0,1-2.65.749A4.41,4.41,0,0,1-438.542-390.14Z" transform="translate(1334.922 3170.976)"/><path class="c" d="M-420.424-399.546a3.306,3.306,0,0,1,1.415,1.213,3.227,3.227,0,0,1,.5,1.77v6.836a.179.179,0,0,1-.2.2h-1.537a.179.179,0,0,1-.2-.2v-.728c0-.067-.034-.081-.1-.041a3.5,3.5,0,0,1-1.284.84,4.644,4.644,0,0,1-1.689.294,3.931,3.931,0,0,1-2.478-.759,2.722,2.722,0,0,1-.981-2.3,3.025,3.025,0,0,1,1.1-2.478,4.755,4.755,0,0,1,3.085-.9h2.265a.071.071,0,0,0,.081-.08v-.547a1.831,1.831,0,0,0-.516-1.385,2.185,2.185,0,0,0-1.567-.5,2.582,2.582,0,0,0-1.385.334,1.372,1.372,0,0,0-.658.9.213.213,0,0,1-.243.181l-1.638-.222c-.135-.027-.2-.081-.182-.162a2.753,2.753,0,0,1,1.274-1.952,4.846,4.846,0,0,1,2.791-.758A5,5,0,0,1-420.424-399.546Zm-.819,7.98a1.7,1.7,0,0,0,.789-1.436V-394.2a.072.072,0,0,0-.081-.081h-1.9a3.421,3.421,0,0,0-1.9.465,1.467,1.467,0,0,0-.708,1.3,1.3,1.3,0,0,0,.537,1.132A2.354,2.354,0,0,0-423.1-391,3.105,3.105,0,0,0-421.244-391.566Z" transform="translate(1331.862 3170.976)"/><path class="c" d="M-408.121-398.966h-2.185a.072.072,0,0,0-.081.081v5.359A1.65,1.65,0,0,0-410-392.3a1.653,1.653,0,0,0,1.193.375h.587a.179.179,0,0,1,.2.2v1.253a.179.179,0,0,1-.2.2c-.432.027-.742.041-.93.041a3.981,3.981,0,0,1-2.317-.557,2.365,2.365,0,0,1-.778-2.053v-6.048a.072.072,0,0,0-.081-.081h-1.234a.179.179,0,0,1-.2-.2v-1.193a.179.179,0,0,1,.2-.2h1.234a.072.072,0,0,0,.081-.081v-2.387a.179.179,0,0,1,.2-.2h1.456a.179.179,0,0,1,.2.2v2.387a.072.072,0,0,0,.081.081h2.185a.179.179,0,0,1,.2.2v1.193A.179.179,0,0,1-408.121-398.966Z" transform="translate(1328.833 3171.721)"/><path class="c" d="M-402.879-403a1.26,1.26,0,0,1-.364-.93,1.26,1.26,0,0,1,.364-.931,1.26,1.26,0,0,1,.93-.365,1.261,1.261,0,0,1,.93.365,1.261,1.261,0,0,1,.364.931,1.261,1.261,0,0,1-.364.93,1.26,1.26,0,0,1-.93.364A1.259,1.259,0,0,1-402.879-403Zm-.081,12.055v-9.871a.179.179,0,0,1,.2-.2h1.536a.179.179,0,0,1,.2.2v9.871a.179.179,0,0,1-.2.2h-1.536A.179.179,0,0,1-402.96-390.949Z" transform="translate(1326.422 3172.178)"/><path class="c" d="M-394.894-390.12a3.974,3.974,0,0,1-1.557-2.114,7.776,7.776,0,0,1-.364-2.468,7.468,7.468,0,0,1,.343-2.427,3.976,3.976,0,0,1,1.558-2.094,4.591,4.591,0,0,1,2.65-.758,4.316,4.316,0,0,1,2.539.758,4.157,4.157,0,0,1,1.547,2.073,7.3,7.3,0,0,1,.364,2.428,7.73,7.73,0,0,1-.364,2.488,4.017,4.017,0,0,1-1.537,2.114,4.392,4.392,0,0,1-2.569.759A4.518,4.518,0,0,1-394.894-390.12Zm4.025-1.376a2.484,2.484,0,0,0,.87-1.284,6.912,6.912,0,0,0,.223-1.9,7.361,7.361,0,0,0-.2-1.882,2.5,2.5,0,0,0-.87-1.284,2.392,2.392,0,0,0-1.476-.455,2.33,2.33,0,0,0-1.436.455,2.494,2.494,0,0,0-.87,1.284,6.444,6.444,0,0,0-.223,1.882,6.649,6.649,0,0,0,.223,1.9,2.361,2.361,0,0,0,.86,1.284,2.434,2.434,0,0,0,1.487.456A2.292,2.292,0,0,0-390.869-391.5Z" transform="translate(1324.95 3170.976)"/><path class="c" d="M-374.613-398.993a3.489,3.489,0,0,1,.971,2.6v6.674a.179.179,0,0,1-.2.2h-1.537a.179.179,0,0,1-.2-.2v-6.29a2.3,2.3,0,0,0-.586-1.639,2.033,2.033,0,0,0-1.558-.626,2.072,2.072,0,0,0-1.557.626,2.23,2.23,0,0,0-.607,1.619v6.31a.179.179,0,0,1-.2.2h-1.537a.179.179,0,0,1-.2-.2v-9.891a.179.179,0,0,1,.2-.2h1.537a.179.179,0,0,1,.2.2v.729a.068.068,0,0,0,.03.06q.03.02.051-.021a3.061,3.061,0,0,1,2.569-1.112A3.575,3.575,0,0,1-374.613-398.993Z" transform="translate(1321.517 3170.97)"/><path class="c" d="M-368.346-385.675a.183.183,0,0,1-.03-.162l.809-4.49a.208.208,0,0,1,.223-.183h1.335a.191.191,0,0,1,.152.06.188.188,0,0,1,.03.162l-1.193,4.491a.209.209,0,0,1-.223.183h-.951A.186.186,0,0,1-368.346-385.675Z" transform="translate(1318.436 3168.806)"/><path class="c" d="M-426.882-367.481h-2.185a.072.072,0,0,0-.081.082v5.359a1.653,1.653,0,0,0,.385,1.224,1.657,1.657,0,0,0,1.193.374h.587a.179.179,0,0,1,.2.2v1.254a.179.179,0,0,1-.2.2q-.648.041-.931.041a3.971,3.971,0,0,1-2.316-.557,2.363,2.363,0,0,1-.779-2.053V-367.4a.072.072,0,0,0-.081-.082h-1.234a.179.179,0,0,1-.2-.2v-1.193a.178.178,0,0,1,.2-.2h1.234a.072.072,0,0,0,.081-.082v-2.386a.179.179,0,0,1,.2-.2h1.456a.179.179,0,0,1,.2.2v2.386a.072.072,0,0,0,.081.082h2.185a.179.179,0,0,1,.2.2v1.193A.179.179,0,0,1-426.882-367.481Z" transform="translate(1333.131 3164.508)"/><path class="c" d="M-420.66-358.635a3.969,3.969,0,0,1-1.557-2.113,7.782,7.782,0,0,1-.364-2.468,7.45,7.45,0,0,1,.344-2.428,3.985,3.985,0,0,1,1.557-2.094,4.594,4.594,0,0,1,2.65-.758,4.314,4.314,0,0,1,2.539.758,4.15,4.15,0,0,1,1.547,2.074,7.292,7.292,0,0,1,.364,2.427,7.733,7.733,0,0,1-.364,2.488,4.008,4.008,0,0,1-1.537,2.113,4.388,4.388,0,0,1-2.569.759A4.518,4.518,0,0,1-420.66-358.635Zm4.026-1.375a2.5,2.5,0,0,0,.87-1.284,6.949,6.949,0,0,0,.222-1.9,7.357,7.357,0,0,0-.2-1.882,2.493,2.493,0,0,0-.87-1.284,2.394,2.394,0,0,0-1.476-.454,2.326,2.326,0,0,0-1.436.454,2.494,2.494,0,0,0-.87,1.284,6.478,6.478,0,0,0-.222,1.882,6.682,6.682,0,0,0,.222,1.9,2.364,2.364,0,0,0,.86,1.284,2.435,2.435,0,0,0,1.486.456A2.3,2.3,0,0,0-416.634-360.011Z" transform="translate(1330.853 3163.762)"/><path class="c" d="M-401.09-373.3h1.537a.179.179,0,0,1,.2.2v13.754a.179.179,0,0,1-.2.2h-1.537a.179.179,0,0,1-.2-.2v-.668a.069.069,0,0,0-.03-.061c-.021-.013-.044-.006-.071.021a3.186,3.186,0,0,1-1.052.789,3.082,3.082,0,0,1-1.315.283,3.926,3.926,0,0,1-2.417-.718,4.083,4.083,0,0,1-1.406-2.033,7.71,7.71,0,0,1-.384-2.589,8.186,8.186,0,0,1,.324-2.448,4.115,4.115,0,0,1,1.4-2.083,3.954,3.954,0,0,1,2.488-.749,3.207,3.207,0,0,1,1.305.272,3.05,3.05,0,0,1,1.062.779c.027.027.05.034.071.021a.07.07,0,0,0,.03-.062v-4.51A.179.179,0,0,1-401.09-373.3Zm-.243,9a5.331,5.331,0,0,0-.506-2.589,1.87,1.87,0,0,0-1.72-1.031,1.96,1.96,0,0,0-1.8.97,4.893,4.893,0,0,0-.647,2.67,5.334,5.334,0,0,0,.506,2.508,2.008,2.008,0,0,0,1.921,1.113,1.93,1.93,0,0,0,1.78-1.092A5.466,5.466,0,0,0-401.333-364.3Z" transform="translate(1327.505 3164.863)"/><path class="c" d="M-387.368-368.061a3.311,3.311,0,0,1,1.416,1.214,3.228,3.228,0,0,1,.5,1.769v6.837a.179.179,0,0,1-.2.2H-387.2a.178.178,0,0,1-.2-.2v-.728c0-.067-.034-.08-.1-.04a3.5,3.5,0,0,1-1.284.839,4.645,4.645,0,0,1-1.689.294,3.929,3.929,0,0,1-2.478-.759,2.719,2.719,0,0,1-.981-2.3,3.024,3.024,0,0,1,1.1-2.477,4.747,4.747,0,0,1,3.084-.9h2.266a.072.072,0,0,0,.081-.081v-.547a1.832,1.832,0,0,0-.516-1.385,2.186,2.186,0,0,0-1.568-.495,2.583,2.583,0,0,0-1.385.333,1.375,1.375,0,0,0-.658.9.214.214,0,0,1-.243.182l-1.638-.223c-.135-.027-.2-.081-.182-.161a2.756,2.756,0,0,1,1.274-1.953,4.85,4.85,0,0,1,2.791-.758A4.994,4.994,0,0,1-387.368-368.061Zm-.819,7.98a1.7,1.7,0,0,0,.789-1.435v-1.193a.072.072,0,0,0-.081-.082h-1.9a3.418,3.418,0,0,0-1.9.466,1.467,1.467,0,0,0-.708,1.3,1.3,1.3,0,0,0,.536,1.132,2.357,2.357,0,0,0,1.406.385A3.107,3.107,0,0,0-388.186-360.081Z" transform="translate(1324.289 3163.762)"/><path class="c" d="M-380.5-353.965v-1.4a.178.178,0,0,1,.2-.2h.041a3.857,3.857,0,0,0,1.273-.2,1.567,1.567,0,0,0,.769-.678,6.275,6.275,0,0,0,.587-1.486c.013-.013.013-.054,0-.122L-381-368.063l-.02-.081c0-.094.06-.141.182-.141h1.638a.235.235,0,0,1,.243.162l2.286,7.624a.062.062,0,0,0,.06.041.064.064,0,0,0,.061-.041l2.266-7.624a.234.234,0,0,1,.242-.162h1.6c.147,0,.2.074.161.222l-3.681,10.78a8.675,8.675,0,0,1-.93,2.074,2.533,2.533,0,0,1-1.213.961,6.166,6.166,0,0,1-2.1.284h-.283Z" transform="translate(1321.331 3163.714)"/><path class="c" d="M-367.958-356.064a1.259,1.259,0,0,1-.364-.93,1.257,1.257,0,0,1,.364-.93,1.257,1.257,0,0,1,.931-.365,1.257,1.257,0,0,1,.93.365,1.257,1.257,0,0,1,.364.93,1.259,1.259,0,0,1-.364.93,1.259,1.259,0,0,1-.93.364A1.259,1.259,0,0,1-367.958-356.064Z" transform="translate(1318.422 3161.424)"/></g></svg>