<?xml version="1.0" encoding="UTF-8" standalone="no"?>
<svg
   xmlns:dc="http://purl.org/dc/elements/1.1/"
   xmlns:cc="http://creativecommons.org/ns#"
   xmlns:rdf="http://www.w3.org/1999/02/22-rdf-syntax-ns#"
   xmlns:svg="http://www.w3.org/2000/svg"
   xmlns="http://www.w3.org/2000/svg"
   xmlns:sodipodi="http://sodipodi.sourceforge.net/DTD/sodipodi-0.dtd"
   xmlns:inkscape="http://www.inkscape.org/namespaces/inkscape"
   sodipodi:docname="Mauricio_de_Sousa_Editora.svg"
   inkscape:version="1.0 (4035a4fb49, 2020-05-01)"
   id="svg1685"
   version="1.1"
   viewBox="0 0 54.59341 52.916672"
   height="52.916672mm"
   width="54.59341mm">
  <defs
     id="defs1679" />
  <sodipodi:namedview
     inkscape:window-maximized="1"
     inkscape:window-y="-8"
     inkscape:window-x="-8"
     inkscape:window-height="706"
     inkscape:window-width="1360"
     showgrid="false"
     inkscape:document-rotation="0"
     inkscape:current-layer="layer1"
     inkscape:document-units="mm"
     inkscape:cy="-262.85712"
     inkscape:cx="343.16865"
     inkscape:zoom="0.35"
     inkscape:pageshadow="2"
     inkscape:pageopacity="0.0"
     borderopacity="1.0"
     bordercolor="#666666"
     pagecolor="#ffffff"
     id="base" />
  <metadata
     id="metadata1682">
    <rdf:RDF>
      <cc:Work
         rdf:about="">
        <dc:format>image/svg+xml</dc:format>
        <dc:type
           rdf:resource="http://purl.org/dc/dcmitype/StillImage" />
        <dc:title></dc:title>
      </cc:Work>
    </rdf:RDF>
  </metadata>
  <g
     transform="translate(-15.036627,-217.71428)"
     id="layer1"
     inkscape:groupmode="layer"
     inkscape:label="Camada 1">
    <path
       id="path946"
       d="m 16.619756,253.93451 c 0.111493,0.21852 0.726903,1.43151 0.820552,1.60989 0.222977,-0.058 5.266694,-1.3334 5.266694,-1.3334 l 0.142705,0.28094 c 0,0 -4.00019,3.3402 -4.174111,3.48736 0.0892,0.17392 0.717983,1.40921 0.825011,1.62326 0.254192,-0.12487 5.605617,-2.84964 5.859809,-2.9745 -0.09365,-0.18729 -0.379058,-0.74028 -0.472708,-0.92758 -0.254193,0.12932 -4.985745,2.53301 -4.985745,2.53301 l -0.169461,-0.26758 c 0,0 4.27668,-3.49626 4.455061,-3.64342 -0.08473,-0.16055 -0.445952,-0.87407 -0.526224,-1.03907 -0.227435,0.058 -5.583319,1.43151 -5.583319,1.43151 l -0.115947,-0.29879 c 0,0 4.727091,-2.40368 4.985743,-2.53301 -0.09365,-0.18729 -0.379059,-0.74028 -0.472708,-0.92758 -0.249734,0.12933 -5.601158,2.84963 -5.855352,2.97896"
       style="fill:#141721;fill-opacity:1;fill-rule:nonzero;stroke:none;stroke-width:1.14164" />
    <path
       id="path948"
       d="m 15.326496,246.77252 c 0.01784,0.17392 0.147164,1.26204 0.165002,1.43597 0.196219,0.0446 6.412791,1.47164 6.800768,1.56083 -0.03568,-0.2854 -0.120406,-1.02569 -0.138244,-1.18177 -0.182841,-0.0402 -1.462723,-0.30771 -1.462723,-0.30771 l -0.321085,-2.73815 c 0,0 1.181772,-0.52622 1.355694,-0.60203 -0.01784,-0.165 -0.111492,-0.93651 -0.142704,-1.22637 -0.356762,0.17392 -6.078327,2.97004 -6.256708,3.05923 m 4.249923,1.28435 -3.268829,-0.6511 0.432574,-0.20959 2.787199,-1.24867 0.249734,2.14948 z m 0,0"
       style="fill:#141721;fill-opacity:1;fill-rule:nonzero;stroke:none;stroke-width:1.14164" />
    <path
       id="path950"
       d="m 16.02664,238.08091 c 0.276491,0.058 4.290059,0.86961 4.290059,0.86961 0.784876,0.16055 1.181773,0.60204 1.181773,1.3111 0,0.15162 -0.01784,0.31217 -0.05351,0.49055 -0.133786,0.65109 -0.668928,1.2665 -1.774889,1.04353 0,0 -3.478426,-0.70461 -4.223165,-0.85623 -0.04014,0.20959 -0.187301,0.92758 -0.231895,1.13717 0.280948,0.058 4.321275,0.87854 4.321275,0.87854 0.691226,0.12039 1.212989,0.0624 1.632184,-0.17838 0.789336,-0.46379 1.074745,-1.37354 1.177313,-1.87301 0.06244,-0.31217 0.09365,-0.60203 0.09365,-0.86961 0,-0.51284 -0.115948,-0.94541 -0.343384,-1.28879 -0.316625,-0.47272 -0.856228,-0.7938 -1.605427,-0.94542 0,0 -3.955594,-0.80271 -4.232085,-0.85623 -0.04459,0.20959 -0.187299,0.92758 -0.231895,1.13717"
       style="fill:#141721;fill-opacity:1;fill-rule:nonzero;stroke:none;stroke-width:1.14164" />
    <path
       id="path952"
       d="m 18.63992,231.40947 c 0,0 -1.449345,2.68464 -1.578671,2.92544 0.249733,0.13379 5.534265,2.98788 5.779539,3.12167 0.102564,-0.18284 0.423654,-0.78487 0.526224,-0.97217 -0.236356,-0.12487 -2.368006,-1.27542 -2.368006,-1.27542 l 0.775956,-1.44043 c 0.579738,-1.06582 1.070285,-0.86515 1.881918,-0.42811 0.552981,0.29878 0.865146,0.41473 1.146097,0.48163 0.08027,-0.14717 0.437033,-0.80272 0.584197,-1.08367 -0.267571,0.10252 -0.588657,-0.0713 -1.333397,-0.47271 -1.105961,-0.59757 -1.360153,-0.40136 -1.779349,-0.0714 l -0.307706,0.23637 0.06244,-0.38352 c 0.107028,-0.61541 -0.222977,-1.21299 -0.856228,-1.55637 -0.160543,-0.0847 -1.605427,-0.79826 -2.533008,0.91865 m 1.476101,3.31788 -1.752591,-0.94541 0.92312,-1.70354 c 0.18284,-0.33892 0.410276,-0.54852 0.682307,-0.62879 0.312167,-0.0936 0.602035,0.009 0.789335,0.11154 0.307707,0.16053 0.490548,0.36121 0.566359,0.60649 0.08473,0.28094 0.01784,0.60649 -0.205137,1.01676 l -0.874066,1.61881 z m 0,0"
       style="fill:#141721;fill-opacity:1;fill-rule:nonzero;stroke:none;stroke-width:1.14164" />
    <path
       id="path954"
       d="m 21.088196,227.70361 c 0.218516,0.18285 4.851958,4.00465 5.070475,4.18303 0.133786,-0.165 0.584197,-0.70906 0.722442,-0.87406 -0.218517,-0.17838 -4.851957,-4.0002 -5.070475,-4.18303 -0.133785,0.165 -0.584196,0.70906 -0.722442,0.87406"
       style="fill:#141721;fill-opacity:1;fill-rule:nonzero;stroke:none;stroke-width:1.14164" />
    <path
       id="path956"
       d="m 25.489743,223.21288 c -0.624333,0.54852 -0.972176,1.23528 -1.012311,1.97557 -0.04906,0.86514 0.325545,1.77043 1.079203,2.61772 0.762578,0.85623 1.614347,1.3334 2.466116,1.38246 0.726901,0.0402 1.440424,-0.23189 2.064757,-0.78933 0.673388,-0.60204 1.012311,-1.30219 1.012311,-2.05138 0,-0.47717 -0.142705,-0.97218 -0.414735,-1.47611 -0.196219,0.17393 -0.726902,0.64664 -0.847309,0.75367 0.147165,0.28094 0.231895,0.56635 0.231895,0.83393 0,0.45041 -0.196219,0.86961 -0.584197,1.21744 -0.856228,0.76258 -2.024623,0.52176 -3.045853,-0.62879 -1.253124,-1.40475 -0.985553,-2.54192 -0.316626,-3.1395 0.896363,-0.80271 1.614347,-0.45041 2.011244,-0.20514 0.120407,-0.10698 0.664469,-0.59312 0.851769,-0.76257 -0.642171,-0.52178 -2.033542,-1.03461 -3.496264,0.27203"
       style="fill:#141721;fill-opacity:1;fill-rule:nonzero;stroke:none;stroke-width:1.14164" />
    <path
       id="path958"
       d="m 30.091968,220.62635 c 0.120407,0.25865 2.742604,5.65913 2.863012,5.91333 0.191759,-0.0936 0.829471,-0.40136 1.021229,-0.49501 -0.124866,-0.25419 -2.742604,-5.65467 -2.86747,-5.90887 -0.19176,0.0892 -0.825012,0.3969 -1.016771,0.49055"
       style="fill:#141721;fill-opacity:1;fill-rule:nonzero;stroke:none;stroke-width:1.14164" />
    <path
       id="path960"
       d="m 36.143537,218.26727 c -0.405817,0.0981 -1.409208,0.42811 -1.984486,1.37353 -0.437034,0.71798 -0.526224,1.6411 -0.258653,2.73815 0.267571,1.10149 0.767038,1.88192 1.489481,2.31895 0.940957,0.57081 1.988945,0.40582 2.394762,0.3077 0.401356,-0.0981 1.409208,-0.43257 1.984486,-1.37354 0.437034,-0.71797 0.521764,-1.6411 0.254192,-2.7426 -0.267571,-1.09704 -0.767037,-1.87745 -1.48502,-2.31448 -0.940959,-0.57529 -1.988945,-0.40582 -2.394762,-0.30771 m -0.963256,1.73029 c 0.343382,-0.56636 0.887445,-0.7715 1.177313,-0.84285 0.949878,-0.23189 2.122732,0.17392 2.564225,2.00233 0.214057,0.86514 0.151623,1.57867 -0.173922,2.11826 -0.343383,0.56637 -0.887445,0.77151 -1.181772,0.84286 -0.945419,0.22743 -2.118273,-0.17838 -2.564225,-2.00679 -0.209598,-0.86515 -0.151624,-1.5742 0.178381,-2.11381"
       style="fill:#141721;fill-opacity:1;fill-rule:nonzero;stroke:none;stroke-width:1.14164" />
    <path
       id="path962"
       d="m 44.353513,224.30991 c 0.263113,0.058 2.755985,0.6065 2.755985,0.6065 0.704604,0.16054 1.333397,0.0669 1.868538,-0.27203 1.012312,-0.64663 1.395833,-1.97111 1.51624,-2.51071 0.05797,-0.26311 0.115945,-0.6288 0.115945,-1.03015 0,-0.50838 -0.09365,-1.06582 -0.396896,-1.54745 -0.334465,-0.52622 -0.882986,-0.87407 -1.627727,-1.03906 0,0 -2.220839,-0.49056 -2.813958,-0.62434 -0.06243,0.27649 -1.355693,6.14076 -1.418127,6.41724 m 2.778284,-0.29432 -1.511779,-0.33447 1.039067,-4.68695 1.49394,0.33001 c 1.137179,0.25418 1.525157,1.12379 1.181775,2.66233 -0.330007,1.50285 -1.155017,2.26098 -2.203003,2.02908"
       style="fill:#141721;fill-opacity:1;fill-rule:nonzero;stroke:none;stroke-width:1.14164" />
    <path
       id="path964"
       d="m 50.306974,225.88413 c 0.240814,0.13824 4.031406,2.29665 4.27222,2.43489 0.09811,-0.17392 0.352305,-0.61987 0.450413,-0.79379 -0.240813,-0.13824 -3.308964,-1.88637 -3.308964,-1.88637 l 1.03015,-1.81057 c 0,0 2.671252,1.52516 2.912068,1.65893 0.09811,-0.17391 0.3523,-0.61986 0.450408,-0.79379 -0.236352,-0.13379 -2.907604,-1.65893 -2.907604,-1.65893 l 0.865145,-1.51624 c 0,0 2.925445,1.66786 3.166258,1.8061 0.102566,-0.17392 0.356764,-0.61988 0.454872,-0.79379 -0.240813,-0.13824 -3.888701,-2.21639 -4.129514,-2.35463 -0.138247,0.24527 -3.112746,5.46292 -3.255452,5.70819"
       style="fill:#141721;fill-opacity:1;fill-rule:nonzero;stroke:none;stroke-width:1.14164" />
    <path
       id="path966"
       d="m 61.362126,227.96672 c -1.110419,0.83839 -0.709062,1.73476 -0.245271,2.77383 0,0.005 0.307707,0.69568 0.307707,0.69568 0.27649,0.62879 0.566357,1.27989 0.02678,1.68569 -0.2096,0.16055 -0.437036,0.22299 -0.673391,0.19176 -0.365678,-0.0491 -0.740278,-0.33 -1.11488,-0.825 -0.330002,-0.43704 -0.44595,-0.80272 -0.44595,-1.10596 0,-0.39244 0.19622,-0.66893 0.370139,-0.83393 -0.120407,-0.15609 -0.526222,-0.69123 -0.65555,-0.86515 -0.312166,0.26757 -0.709062,0.7492 -0.709062,1.4761 0,0.52177 0.205136,1.16839 0.798255,1.94435 0.187302,0.24973 0.874065,1.07029 1.788266,1.19961 0.48609,0.0669 0.967717,-0.0758 1.427046,-0.42811 0.851768,-0.64217 0.753661,-1.41367 0.338924,-2.36801 0,0 -0.682308,-1.58313 -0.682308,-1.58313 -0.115945,-0.25419 -0.3523,-0.78933 0.178382,-1.19515 0.575279,-0.43257 1.217451,-0.009 1.592051,0.48609 0.325543,0.42811 0.432573,0.78041 0.432573,1.06582 0,0.37906 -0.187299,0.63326 -0.330004,0.78488 0.11149,0.14717 0.521763,0.68677 0.655547,0.86515 0.227436,-0.2096 0.66893,-0.71798 0.66893,-1.48503 0,-0.46824 -0.169463,-1.03014 -0.660008,-1.68123 -1.391373,-1.84178 -2.70247,-1.0792 -3.068151,-0.79826"
       style="fill:#141721;fill-opacity:1;fill-rule:nonzero;stroke:none;stroke-width:1.14164" />
    <path
       id="path968"
       d="m 63.765807,234.45532 c -2.929906,1.32448 -2.162868,3.62559 -1.859618,4.29898 0.173921,0.37906 0.686765,1.30664 1.721374,1.69462 0.784875,0.29879 1.707996,0.21406 2.738146,-0.25419 2.929903,-1.32895 2.162866,-3.62559 1.859616,-4.29898 -0.303242,-0.67338 -1.529612,-2.76936 -4.459518,-1.44043 m -1.025689,3.92438 c -0.124865,-0.27648 -0.298788,-0.82947 -0.06244,-1.44934 0.218517,-0.59312 0.744741,-1.07474 1.556374,-1.44488 1.716916,-0.77596 2.755985,-0.10252 3.157339,0.78487 0.405818,0.88744 0.222978,2.11381 -1.49394,2.88977 -1.712452,0.78042 -2.755985,0.10697 -3.157339,-0.78042"
       style="fill:#141721;fill-opacity:1;fill-rule:nonzero;stroke:none;stroke-width:1.14164" />
    <path
       id="path970"
       d="m 65.041231,241.79123 c -0.709065,0.0223 -1.204071,0.18284 -1.565291,0.50839 -0.664469,0.6065 -0.767037,1.53408 -0.767037,2.04693 v 0.0267 c 0.0044,0.92312 0.236352,1.61435 0.682307,2.0603 0.405813,0.40135 0.998932,0.60203 1.76597,0.59312 0,0 4.035864,-0.0222 4.321273,-0.0267 -0.0044,-0.21406 -0.0089,-0.94542 -0.0089,-1.15947 -0.280948,0 -4.374791,0.0267 -4.374791,0.0267 -0.468249,0.005 -0.833927,-0.12041 -1.079203,-0.36122 -0.258649,-0.2542 -0.392436,-0.64664 -0.396896,-1.1684 v -0.009 c 0,-0.66447 0.401357,-1.36908 1.520695,-1.378 0,0 4.031406,-0.0267 4.312359,-0.0267 -0.0044,-0.21405 -0.0044,-0.94541 -0.0089,-1.16393 -0.28095,0.005 -4.392626,0.0311 -4.401545,0.0311"
       style="fill:#141721;fill-opacity:1;fill-rule:nonzero;stroke:none;stroke-width:1.14164" />
    <path
       id="path972"
       d="m 63.070122,248.61431 c -0.55744,0.36567 -0.945417,1.05244 -1.150556,2.03799 -0.08473,0.4192 -0.419195,2.52855 1.538534,2.93437 1.043529,0.21406 1.556374,-0.36569 2.006787,-1.30665 l 0.740278,-1.55637 c 0.111493,-0.23189 0.365683,-0.78487 1.01677,-0.65109 0.704607,0.14717 0.807172,0.90976 0.682308,1.51625 -0.249733,1.2219 -0.958798,1.31109 -1.324476,1.29771 -0.03568,0.17838 -0.173923,0.84286 -0.218519,1.06583 0.495009,0.0491 1.957729,0.009 2.390302,-2.07813 0.178382,-0.86516 0.09811,-1.55639 -0.231895,-2.0603 -0.347842,-0.53515 -0.89636,-0.71799 -1.186232,-0.77596 -1.36461,-0.28541 -1.774889,0.60649 -2.252054,1.6411 -0.0044,0 -0.321088,0.68676 -0.321088,0.68676 -0.289867,0.62434 -0.593117,1.26651 -1.253125,1.12826 -0.383519,-0.0758 -0.981096,-0.41027 -0.700143,-1.7615 0.258649,-1.24421 0.99001,-1.36908 1.409205,-1.3334 0.04014,-0.18731 0.178382,-0.84731 0.222978,-1.06137 -0.343384,-0.0491 -0.874067,-0.0491 -1.369074,0.2765"
       style="fill:#141721;fill-opacity:1;fill-rule:nonzero;stroke:none;stroke-width:1.14164" />
    <path
       id="path974"
       d="m 60.501436,254.21992 c 0.115951,0.1427 0.932043,1.1684 0.932043,1.1684 l -1.48948,2.31448 c 0,0 -1.248667,-0.34338 -1.431504,-0.39244 -0.0892,0.13826 -0.508389,0.7938 -0.668931,1.03908 0.387978,0.0892 6.582254,1.56083 6.778472,1.60542 0.09365,-0.14717 0.686768,-1.06582 0.780415,-1.21299 -0.120407,-0.15608 -4.013565,-5.20872 -4.258842,-5.52534 -0.156083,0.24527 -0.557437,0.86961 -0.642173,1.00339 m 3.295587,4.51304 -2.943281,-0.80717 1.168392,-1.81949 2.243138,2.73814 z m 0,0"
       style="fill:#141721;fill-opacity:1;fill-rule:nonzero;stroke:none;stroke-width:1.14164" />
    <path
       id="path976"
       d="m 21.939965,263.72762 v 6.56887 h 4.914391 v -0.9142 h -3.81289 v -2.0826 h 3.353559 v -0.9142 h -3.353559 v -1.74367 h 3.647888 v -0.9142 z m 0,0"
       style="fill:#141721;fill-opacity:1;fill-rule:nonzero;stroke:none;stroke-width:1.14164" />
    <path
       id="path978"
       d="m 28.321537,263.72762 v 6.56887 h 2.827337 c 2.573143,0 2.702469,-2.87193 2.702469,-3.44721 0,-0.94096 -0.258652,-3.12166 -2.644496,-3.12166 z m 1.105962,5.53426 v -4.65127 h 1.529615 c 1.163935,0 1.730295,0.76703 1.730295,2.34125 0,1.54299 -0.637712,2.46165 -1.712456,2.46165 h -1.547454 z m 0,0"
       style="fill:#141721;fill-opacity:1;fill-rule:nonzero;stroke:none;stroke-width:1.14164" />
    <path
       id="path980"
       d="m 35.122307,270.29649 h 1.132718 v -6.56887 h -1.132718 z m 0,0"
       style="fill:#141721;fill-opacity:1;fill-rule:nonzero;stroke:none;stroke-width:1.14164" />
    <path
       id="path982"
       d="m 37.298553,263.72762 v 0.9142 h 2.078136 v 5.65467 h 1.137178 v -5.65467 h 2.073677 v -0.9142 z m 0,0"
       style="fill:#141721;fill-opacity:1;fill-rule:nonzero;stroke:none;stroke-width:1.14164" />
    <path
       id="path984"
       d="m 43.434854,267.00983 c 0,3.21977 2.4126,3.4695 3.152878,3.4695 0.735825,0 3.152881,-0.24973 3.152881,-3.4695 0,-3.21532 -2.417056,-3.46506 -3.152881,-3.46506 -0.740278,0 -3.152878,0.24974 -3.152878,3.46506 m 1.132718,0 c 0,-1.88192 1.043527,-2.55085 2.02016,-2.55085 0.976638,0 2.015707,0.66893 2.015707,2.55085 0,1.88637 -1.039069,2.5553 -2.015707,2.5553 -0.976633,0 -2.02016,-0.66893 -2.02016,-2.5553"
       style="fill:#141721;fill-opacity:1;fill-rule:nonzero;stroke:none;stroke-width:1.14164" />
    <path
       id="path986"
       d="m 51.18996,263.72762 v 6.56887 h 1.101503 v -2.68909 h 1.636641 c 1.21299,0 1.270963,0.52622 1.270963,1.4538 0,0.62434 0.0446,0.95434 0.12041,1.23529 h 1.230828 c -0.214059,-0.1873 -0.218517,-0.55298 -0.218517,-1.40029 0,-1.25758 -0.29433,-1.38691 -0.780415,-1.60096 l -0.356764,-0.16055 0.370142,-0.12041 c 0.593116,-0.20513 0.958797,-0.77595 0.958797,-1.49394 0,-0.18729 -0.05797,-1.79272 -2.011244,-1.79272 z m 1.101503,2.87193 v -1.98894 h 1.944349 c 1.070285,0 1.155017,0.80271 1.155017,1.05244 0,0.97664 -0.722442,1.08813 -1.262044,1.08813 h -1.837322 z m 0,0"
       style="fill:#141721;fill-opacity:1;fill-rule:nonzero;stroke:none;stroke-width:1.14164" />
    <path
       id="path988"
       d="m 59.970756,263.72762 c -0.06689,0.1873 -2.211922,6.19427 -2.345706,6.56887 h 1.190692 c 0.06243,-0.17838 0.477168,-1.41812 0.477168,-1.41812 h 2.755984 c 0,0 0.387977,1.23528 0.441489,1.41812 h 1.235287 c -0.129323,-0.3746 -2.247596,-6.37711 -2.31449,-6.56887 z m -0.330004,4.07153 1.03015,-3.17071 0.160541,0.45041 0.909744,2.91653 h -2.162866 z m 0,0"
       style="fill:#141721;fill-opacity:1;fill-rule:nonzero;stroke:none;stroke-width:1.14164" />
    <path
       id="path990"
       d="M 26.840977,264.78899 H 23.19309 v 1.44934 h 3.3491 v 1.21299 h -3.3491 v 1.77935 h 3.80843 v 1.21745 H 21.788341 V 263.576 h 5.052636 z m 0,0"
       style="fill:#211e1e;fill-opacity:1;fill-rule:nonzero;stroke:none;stroke-width:1.14164" />
    <path
       id="path992"
       d="m 28.169915,263.576 h 3.036932 c 2.314492,0 2.79612,1.9711 2.79612,3.27328 0,1.47165 -0.584197,3.59884 -2.854093,3.59884 h -2.978959 z m 1.409208,5.68588 h 1.39583 c 1.168395,0 1.560833,-1.17732 1.560833,-2.30557 0,-2.03354 -0.963257,-2.19408 -1.578672,-2.19408 h -1.377991 z m 0,0"
       style="fill:#211e1e;fill-opacity:1;fill-rule:nonzero;stroke:none;stroke-width:1.14164" />
    <path
       id="path994"
       d="M 36.406649,270.44812 H 34.966223 V 263.576 h 1.440426 z m 0,0"
       style="fill:#211e1e;fill-opacity:1;fill-rule:nonzero;stroke:none;stroke-width:1.14164" />
    <path
       id="path996"
       d="m 40.661031,270.44812 h -1.435965 v -5.65468 H 37.151388 V 263.576 h 5.587781 v 1.21744 h -2.078138 z m 0,0"
       style="fill:#211e1e;fill-opacity:1;fill-rule:nonzero;stroke:none;stroke-width:1.14164" />
    <path
       id="path998"
       d="m 46.587732,263.39315 c 0.909743,0 3.300047,0.39244 3.300047,3.61668 0,3.22868 -2.390304,3.62112 -3.300047,3.62112 -0.909738,0 -3.304503,-0.39244 -3.304503,-3.62112 0,-3.22424 2.394765,-3.61668 3.304503,-3.61668 m 0,6.02036 c 0.775959,0 1.864082,-0.47717 1.864082,-2.40368 0,-1.92206 -1.088123,-2.39922 -1.864082,-2.39922 -0.775954,0 -1.868535,0.47716 -1.868535,2.39922 0,1.92651 1.092581,2.40368 1.868535,2.40368"
       style="fill:#211e1e;fill-opacity:1;fill-rule:nonzero;stroke:none;stroke-width:1.14164" />
    <path
       id="path1000"
       d="m 51.038336,263.576 h 3.473968 c 1.828401,0 2.162866,1.34677 2.162866,1.94434 0,0.75367 -0.383519,1.40475 -1.061366,1.63665 0.561901,0.24973 0.869606,0.45933 0.869606,1.73921 0,1.00785 0,1.25313 0.307708,1.36908 v 0.18284 h -1.592051 c -0.09365,-0.32555 -0.151619,-0.68231 -0.151619,-1.38692 0,-0.94096 -0.05797,-1.30217 -1.119344,-1.30217 h -1.485019 v 2.68909 h -1.404749 z m 3.090449,3.02355 c 0.744739,0 1.110417,-0.25865 1.110417,-0.9365 0,-0.36568 -0.165,-0.90082 -1.00339,-0.90082 h -1.792727 v 1.83732 z m 0,0"
       style="fill:#211e1e;fill-opacity:1;fill-rule:nonzero;stroke:none;stroke-width:1.14164" />
    <path
       id="path1002"
       d="m 58.922768,270.44812 h -1.511776 l 2.452735,-6.87212 h 1.654482 l 2.42152,6.87212 h -1.56083 l -0.437034,-1.41813 h -2.537468 z m 0.865148,-2.60436 h 1.748131 l -0.851768,-2.71585 h -0.01786 z m 0,0"
       style="fill:#211e1e;fill-opacity:1;fill-rule:nonzero;stroke:none;stroke-width:1.14164" />
    <path
       id="path1004"
       d="m 22.542,250.75487 0.606494,1.19515 -5.119529,2.59991 0.0089,0.0178 5.703727,-1.45826 0.63771,1.25312 -4.55317,3.71925 0.0089,0.0178 5.119529,-2.5999 0.606494,1.19515 -6.122921,3.11274 -0.954337,-1.86853 4.267761,-3.56316 -0.0089,-0.0178 -5.382642,1.36015 -0.945418,-1.8507 z m 0,0"
       style="fill:#211e1e;fill-opacity:1;fill-rule:nonzero;stroke:none;stroke-width:1.14164" />
    <path
       id="path1006"
       d="m 22.292266,248.46267 0.173922,1.50286 -7.108475,-1.63663 -0.196219,-1.64557 6.546576,-3.20194 0.178381,1.55192 -1.351235,0.59758 0.294327,2.51962 z m -2.68909,-0.55297 -0.200679,-1.73922 -2.599899,1.16394 v 0.0178 z m 0,0"
       style="fill:#211e1e;fill-opacity:1;fill-rule:nonzero;stroke:none;stroke-width:1.14164" />
    <path
       id="path1008"
       d="m 20.521837,237.6528 c 1.770429,0.36122 2.314491,1.58313 1.971109,3.2822 -0.124867,0.61543 -0.46379,1.50733 -1.248666,1.97112 -0.490548,0.28541 -1.061367,0.31216 -1.739214,0.19621 l -4.468439,-0.90528 0.294328,-1.43596 4.37033,0.88744 c 0.9365,0.1873 1.462723,-0.27203 1.596509,-0.92758 0.191759,-0.96771 -0.196219,-1.45826 -1.012311,-1.6188 l -4.437223,-0.90083 0.289868,-1.43596 z m 0,0"
       style="fill:#211e1e;fill-opacity:1;fill-rule:nonzero;stroke:none;stroke-width:1.14164" />
    <path
       id="path1010"
       d="m 16.856112,234.39735 1.650021,-3.05924 c 0.869608,-1.60542 2.216382,-1.26203 2.738147,-0.97662 0.664468,0.35676 1.056906,1.00339 0.936499,1.71245 0.486087,-0.37906 0.816092,-0.54852 1.94435,0.0625 0.887445,0.47718 1.105961,0.59312 1.351235,0.37906 l 0.160543,0.0847 -0.758119,1.4003 c -0.330004,-0.0713 -0.668927,-0.18731 -1.29326,-0.52623 -0.825011,-0.44595 -1.172854,-0.56636 -1.67678,0.36568 l -0.704605,1.30664 2.368006,1.27989 -0.668927,1.23528 z m 4.129515,-1.28434 c 0.356762,-0.65555 0.303248,-1.09705 -0.298788,-1.42258 -0.316625,-0.16947 -0.865146,-0.28542 -1.266504,0.45932 l -0.851768,1.57422 1.618806,0.87406 z m 0,0"
       style="fill:#211e1e;fill-opacity:1;fill-rule:nonzero;stroke:none;stroke-width:1.14164" />
    <path
       id="path1012"
       d="m 27.09071,230.99028 -0.914201,1.11042 -5.30237,-4.37479 0.914202,-1.11042 z m 0,0"
       style="fill:#211e1e;fill-opacity:1;fill-rule:nonzero;stroke:none;stroke-width:1.14164" />
    <path
       id="path1014"
       d="m 28.147617,223.89518 c -0.361222,-0.23189 -1.039069,-0.66447 -1.926513,0.12487 -0.512845,0.45933 -0.963256,1.4761 0.330004,2.9299 0.820552,0.91866 1.926513,1.42259 2.831796,0.61542 0.593116,-0.53069 0.709064,-1.23529 0.27649,-1.98003 l 1.070285,-0.95434 c 0.780416,1.30218 0.74474,2.73369 -0.539602,3.87978 -1.364613,1.21746 -3.166259,1.1684 -4.74493,-0.60203 -1.600968,-1.79272 -1.377991,-3.63005 -0.05797,-4.81183 1.534075,-1.36906 3.099367,-0.86514 3.835188,-0.16054 z m 0,0"
       style="fill:#211e1e;fill-opacity:1;fill-rule:nonzero;stroke:none;stroke-width:1.14164" />
    <path
       id="path1016"
       d="m 34.176889,226.11603 -1.288802,0.62879 -3.001257,-6.18536 1.293261,-0.62879 z m 0,0"
       style="fill:#211e1e;fill-opacity:1;fill-rule:nonzero;stroke:none;stroke-width:1.14164" />
    <path
       id="path1018"
       d="m 36.107861,218.1201 c 0.882985,-0.21406 3.300045,-0.40135 4.062623,2.73369 0.762578,3.13504 -1.467183,4.08046 -2.350167,4.29452 -0.887445,0.21852 -3.304505,0.40135 -4.067083,-2.73369 -0.762578,-3.13058 1.471641,-4.08046 2.354627,-4.29452 m 1.422587,5.85089 c 0.753659,-0.18284 1.703536,-0.90974 1.244206,-2.77827 -0.450412,-1.86854 -1.627725,-2.07368 -2.381384,-1.89084 -0.753658,0.18283 -1.699077,0.90527 -1.244206,2.77381 0.454871,1.86854 1.627724,2.07815 2.381384,1.8953"
       style="fill:#211e1e;fill-opacity:1;fill-rule:nonzero;stroke:none;stroke-width:1.14164" />
    <path
       id="path1020"
       d="m 45.655695,217.71428 2.961121,0.65555 c 2.265437,0.49947 2.305571,2.52855 2.024623,3.79951 -0.316624,1.43598 -1.346776,3.38478 -3.563159,2.8987 l -2.907607,-0.64217 z m 0.147164,5.85536 1.364615,0.30324 c 1.141634,0.24973 1.774888,-0.81609 2.020159,-1.9176 0.437037,-1.98002 -0.468249,-2.35016 -1.065826,-2.47948 l -1.346774,-0.29879 z m 0,0"
       style="fill:#211e1e;fill-opacity:1;fill-rule:nonzero;stroke:none;stroke-width:1.14164" />
    <path
       id="path1022"
       d="m 57.295044,223.5295 -3.166259,-1.8061 -0.717984,1.25758 2.912068,1.65894 -0.602035,1.05244 -2.912068,-1.65893 -0.882986,1.54745 3.308964,1.88638 -0.602033,1.0569 -4.530873,-2.58206 3.407071,-5.9713 4.38817,2.50179 z m 0,0"
       style="fill:#211e1e;fill-opacity:1;fill-rule:nonzero;stroke:none;stroke-width:1.14164" />
    <path
       id="path1024"
       d="m 59.787916,230.56662 c -0.298789,0.23635 -0.762579,0.82948 -0.0044,1.82841 0.410273,0.54406 0.994473,1.04798 1.57421,0.6065 0.428114,-0.32109 0.231897,-0.82056 -0.07135,-1.50287 l -0.307705,-0.69569 c -0.463791,-1.03906 -0.914204,-2.04246 0.289867,-2.95665 0.610955,-0.46379 1.939893,-0.94988 3.282209,0.82946 1.275421,1.67678 0.517303,2.96113 -0.151625,3.47844 l -0.829471,-1.10151 c 0.218517,-0.21406 0.731361,-0.74474 -0.02678,-1.74367 -0.330007,-0.43703 -0.882986,-0.83393 -1.377992,-0.45933 -0.428115,0.32554 -0.254196,0.74474 -0.133789,1.01677 l 0.682307,1.58313 c 0.383519,0.88298 0.597577,1.80165 -0.387977,2.54638 -1.645563,1.24867 -3.063692,-0.31662 -3.424912,-0.79825 -1.516237,-2.00233 -0.624332,-3.21532 0.05351,-3.73262 z m 0,0"
       style="fill:#211e1e;fill-opacity:1;fill-rule:nonzero;stroke:none;stroke-width:1.14164" />
    <path
       id="path1026"
       d="m 68.363572,235.83331 c 0.3746,0.82502 1.003393,3.17073 -1.935429,4.49966 -2.938825,1.32894 -4.281141,-0.68676 -4.655738,-1.51623 -0.374603,-0.82948 -1.007856,-3.17073 1.930971,-4.49966 2.938823,-1.3334 4.285597,0.68677 4.660196,1.51623 m -5.485206,2.48397 c 0.321085,0.70459 1.204068,1.50285 2.956658,0.70905 1.752594,-0.79379 1.739217,-1.98894 1.418129,-2.69355 -0.316627,-0.7046 -1.204071,-1.50285 -2.956663,-0.70906 -1.752589,0.79379 -1.739212,1.98448 -1.418124,2.69356"
       style="fill:#211e1e;fill-opacity:1;fill-rule:nonzero;stroke:none;stroke-width:1.14164" />
    <path
       id="path1028"
       d="m 65.15718,247.17833 c -1.806107,0.0134 -2.590983,-1.07474 -2.599902,-2.80504 -0.0044,-0.63324 0.142706,-1.56975 0.820555,-2.18962 0.414732,-0.37459 0.972174,-0.52176 1.65894,-0.54406 l 4.557628,-0.0311 0.0089,1.46717 -4.45952,0.0267 c -0.958798,0.005 -1.377993,0.56191 -1.373529,1.23529 0.0089,0.98555 0.490543,1.38246 1.320017,1.37799 l 4.53087,-0.0311 0.0089,1.46719 z m 0,0"
       style="fill:#211e1e;fill-opacity:1;fill-rule:nonzero;stroke:none;stroke-width:1.14164" />
    <path
       id="path1030"
       d="m 64.336625,249.56418 c -0.3746,-0.0713 -1.123797,-0.0311 -1.382451,1.19515 -0.133784,0.66893 -0.129326,1.44042 0.5842,1.58759 0.521761,0.11154 0.767038,-0.36567 1.083662,-1.04352 l 0.321085,-0.68678 c 0.477171,-1.0346 0.936501,-2.03354 2.417061,-1.72583 0.753658,0.15163 1.988945,0.82948 1.538534,3.01464 -0.428114,2.0603 -1.890837,2.33233 -2.720308,2.17178 l 0.280948,-1.34677 c 0.30771,0.0223 1.043532,0.058 1.297723,-1.16839 0.11149,-0.53514 0.04459,-1.21299 -0.566357,-1.33787 -0.521766,-0.11153 -0.722445,0.2988 -0.847309,0.56637 l -0.744742,1.55637 c -0.414737,0.86961 -0.963258,1.63664 -2.171784,1.38691 -2.024624,-0.4192 -1.774889,-2.51963 -1.654482,-3.10828 0.508383,-2.4572 2.011241,-2.58653 2.845173,-2.41261 z m 0,0"
       style="fill:#211e1e;fill-opacity:1;fill-rule:nonzero;stroke:none;stroke-width:1.14164" />
    <path
       id="path1032"
       d="m 60.31414,254.22884 0.82055,-1.27542 4.455062,5.78399 -0.900824,1.39137 -7.086177,-1.68123 0.842849,-1.31557 1.431504,0.3969 1.369076,-2.13165 z m 1.725835,2.13165 -0.949878,1.47165 2.747063,0.75811 0.01336,-0.0178 z m 0,0"
       style="fill:#211e1e;fill-opacity:1;fill-rule:nonzero;stroke:none;stroke-width:1.14164" />
    <path
       id="path1034"
       d="m 42.088077,259.93703 c 8.602416,0 15.57265,-6.97023 15.57265,-15.56819 0,-8.59795 -6.970234,-15.57265 -15.57265,-15.57265 -8.597955,0 -15.568186,6.9747 -15.568186,15.57265 0,8.59796 6.970231,15.56819 15.568186,15.56819"
       style="fill:#fff000;fill-opacity:1;fill-rule:nonzero;stroke:none;stroke-width:1.14164" />
    <path
       id="path1036"
       d="m 50.262379,243.07557 c -0.923121,1.65003 -2.96558,1.77936 -4.383709,0.16502 -0.454872,0.74473 -1.605426,1.20406 -2.492873,1.46717 -0.289867,0.20961 -0.548521,0.22744 -1.034608,0.24973 -0.758119,0.0311 -1.382451,0.12933 -1.815025,1.28434 -0.428114,1.15502 -1.85516,1.13273 -2.381383,0.51731 -0.526224,-0.61095 -0.486089,-0.94542 -0.847309,-1.37353 -0.361221,-0.42812 -0.891904,-1.48502 -1.088123,-2.64004 -0.196219,-1.15055 0.330005,-2.80057 0.789334,-2.9968 0.463791,-0.20067 0.990015,0.0981 1.453805,0.39244 0.459331,0.29879 1.20407,0.0892 1.382451,-0.45932 0.330004,-1.02123 0.958797,-0.92313 1.58313,-0.82502 -0.825011,-0.70461 -1.792727,-1.24867 -3.045853,-1.62772 -0.267572,0.0981 -0.347842,0.14716 -0.481628,0.20959 -0.196219,-1.05244 -0.09811,-2.33678 0.263112,-2.56869 1.815025,0.72246 3.264369,-0.53067 3.264369,-1.51623 0,-0.99001 -1.186232,-2.07813 -2.769362,-2.07813 -1.58313,0 -2.274356,0.59311 -2.800579,2.01125 -0.530683,1.41811 -0.133787,3.09936 -0.06689,3.75936 0.06689,0.65555 -0.46379,1.08813 -0.825011,0.49055 -0.361221,-0.59311 -1.418128,-2.07367 -2.207463,-2.7649 -0.793794,-0.69569 -1.913134,-0.69569 -2.800579,-0.13378 -0.891904,0.5619 -1.815025,2.24313 -1.815025,3.39369 0,1.15501 0.825013,1.68124 1.748132,1.58313 0.923122,-0.0981 1.877459,-0.75812 2.403682,-2.07814 0.923121,0.59758 1.355694,1.55192 1.355694,1.55192 0,0 -0.102564,0.0981 -0.365679,0.26311 0.06689,0.42812 0.267571,1.8507 0.660008,2.54193 0.508385,0.88299 2.011243,4.44614 2.176247,6.62238 0.165001,2.17625 0.231894,5.63684 -0.165004,7.44741 1.748132,0.42811 4.780606,1.0569 6.854283,1.18623 2.176246,0.13824 6.399414,-0.0625 7.585647,-1.18623 1.186233,-1.11935 3.228692,-4.31682 3.197476,-7.1174 -0.03568,-2.80058 -1.551913,-4.71371 -3.331265,-5.77063"
       style="fill:#66ccf5;fill-opacity:1;fill-rule:nonzero;stroke:none;stroke-width:1.14164" />
    <path
       id="path1038"
       d="m 39.844939,239.68189 c -0.173921,0.54852 -0.92312,0.75811 -1.382451,0.46379 -0.46379,-0.2988 -0.990014,-0.59758 -1.449344,-0.39691 -0.46379,0.19623 -0.990014,1.84625 -0.793795,2.9968 0.196219,1.15502 0.726902,2.21192 1.088123,2.64004 0.36122,0.42811 0.325545,0.76258 0.847309,1.37353 0.526223,0.61542 1.953269,0.63771 2.381383,-0.51731 0.432574,-1.15501 1.056906,-1.25311 1.815025,-1.28434 0.481629,-0.0223 0.744741,-0.0402 1.039069,-0.24973 -0.01783,0.005 -0.03568,0.0134 -0.04906,0.0178 0.129325,-0.75813 0.392438,-1.74814 -0.09811,-3.3937 -0.495006,-1.65002 -1.221909,-2.24314 -1.815025,-2.47504 -0.624333,-0.0981 -1.253125,-0.19621 -1.58313,0.82502"
       style="fill:#ffffff;fill-opacity:1;fill-rule:nonzero;stroke:none;stroke-width:1.14164" />
    <path
       id="path1040"
       d="m 47.064903,228.62228 -1.146096,-0.20068 -0.717984,-0.91867 -0.548521,1.03015 -1.092581,0.3969 0.807172,0.83839 0.04459,1.16394 1.043527,-0.51285 1.119341,0.32109 -0.160543,-1.15057 z m 0,0"
       style="fill:#211e1e;fill-opacity:1;fill-rule:nonzero;stroke:none;stroke-width:1.14164" />
    <path
       id="path1042"
       d="m 45.432717,230.15188 -0.780415,0.37906 -0.03121,-0.86514 -0.602035,-0.62433 0.816091,-0.29879 0.405818,-0.76704 0.535144,0.68676 0.856228,0.14717 -0.48609,0.72244 0.120407,0.86069 z m 0,0"
       style="fill:#f89c0c;fill-opacity:1;fill-rule:nonzero;stroke:#f89c0c;stroke-width:0.192937;stroke-linecap:butt;stroke-linejoin:miter;stroke-miterlimit:4;stroke-opacity:1" />
    <path
       id="path1044"
       d="m 51.729562,230.29905 -1.146098,-0.20067 -0.717981,-0.91867 -0.548524,1.03015 -1.092581,0.3969 0.807172,0.83838 0.04014,1.16395 1.047986,-0.51285 1.119341,0.32109 -0.160541,-1.15502 z m 0,0"
       style="fill:#211e1e;fill-opacity:1;fill-rule:nonzero;stroke:none;stroke-width:1.14164" />
    <path
       id="path1046"
       d="m 50.097377,231.82867 -0.780418,0.37905 -0.03122,-0.86514 -0.602035,-0.62433 0.816091,-0.29879 0.405818,-0.76704 0.535144,0.68676 0.856226,0.14717 -0.486085,0.72244 0.120407,0.86069 z m 0,0"
       style="fill:#f89c0c;fill-opacity:1;fill-rule:nonzero;stroke:#f89c0c;stroke-width:0.192937;stroke-linecap:butt;stroke-linejoin:miter;stroke-miterlimit:4;stroke-opacity:1" />
    <path
       id="path1048"
       d="m 41.7001,228.52416 -1.146097,-0.20067 -0.717983,-0.91867 -0.548521,1.03016 -1.092582,0.39689 0.807173,0.83839 0.04014,1.16394 1.047988,-0.50839 1.11934,0.31663 -0.160543,-1.15056 z m 0,0"
       style="fill:#211e1e;fill-opacity:1;fill-rule:nonzero;stroke:none;stroke-width:1.14164" />
    <path
       id="path1050"
       d="m 40.067915,230.05377 -0.780416,0.38353 -0.03121,-0.86961 -0.602036,-0.62433 0.816093,-0.29879 0.405817,-0.76704 0.535142,0.68677 0.856228,0.15162 -0.486087,0.71799 0.120406,0.86068 z m 0,0"
       style="fill:#f89c0c;fill-opacity:1;fill-rule:nonzero;stroke:#f89c0c;stroke-width:0.192937;stroke-linecap:butt;stroke-linejoin:miter;stroke-miterlimit:4;stroke-opacity:1" />
    <path
       id="path1052"
       d="m 36.763411,229.86648 -1.150557,-0.20514 -0.713524,-0.91866 -0.548521,1.03015 -1.092582,0.3969 0.807173,0.83839 0.04014,1.16393 1.047986,-0.50839 1.11934,0.32109 -0.160546,-1.15502 z m 0,0"
       style="fill:#211e1e;fill-opacity:1;fill-rule:nonzero;stroke:none;stroke-width:1.14164" />
    <path
       id="path1054"
       d="m 35.131226,231.39163 -0.780417,0.38353 -0.03121,-0.86961 -0.602035,-0.62434 0.816091,-0.29879 0.405817,-0.76257 0.535143,0.6823 0.851768,0.15162 -0.481628,0.71799 0.120407,0.86069 z m 0,0"
       style="fill:#f89c0c;fill-opacity:1;fill-rule:nonzero;stroke:#f89c0c;stroke-width:0.192937;stroke-linecap:butt;stroke-linejoin:miter;stroke-miterlimit:4;stroke-opacity:1" />
    <path
       id="path1056"
       d="m 55.667319,233.46532 -1.146096,-0.20069 -0.717984,-0.91865 -0.544062,1.02568 -1.092581,0.3969 0.807169,0.83839 0.04014,1.16839 1.047988,-0.51285 1.119338,0.32109 -0.160541,-1.15501 z m 0,0"
       style="fill:#211e1e;fill-opacity:1;fill-rule:nonzero;stroke:none;stroke-width:1.14164" />
    <path
       id="path1058"
       d="m 54.035133,234.99493 -0.780415,0.37906 -0.02678,-0.86961 -0.602033,-0.62433 0.816091,-0.29434 0.405818,-0.76703 0.535144,0.68231 0.851767,0.15162 -0.486089,0.72244 0.124864,0.85623 z m 0,0"
       style="fill:#f89c0c;fill-opacity:1;fill-rule:nonzero;stroke:#f89c0c;stroke-width:0.192937;stroke-linecap:butt;stroke-linejoin:miter;stroke-miterlimit:4;stroke-opacity:1" />
    <path
       id="path1060"
       d="m 57.914917,237.54577 -1.150556,-0.20068 -0.713523,-0.91865 -0.548524,1.03014 -1.092581,0.39691 0.807175,0.83838 0.04014,1.16393 1.047991,-0.51284 1.119339,0.32108 -0.160542,-1.15055 z m 0,0"
       style="fill:#211e1e;fill-opacity:1;fill-rule:nonzero;stroke:none;stroke-width:1.14164" />
    <path
       id="path1062"
       d="m 56.282734,239.07539 -0.78042,0.37906 -0.03122,-0.86514 -0.602035,-0.62434 0.816091,-0.29879 0.405818,-0.76704 0.535144,0.68677 0.851768,0.14717 -0.481627,0.72243 0.120407,0.8607 z m 0,0"
       style="fill:#f89c0c;fill-opacity:1;fill-rule:nonzero;stroke:#f89c0c;stroke-width:0.192937;stroke-linecap:butt;stroke-linejoin:miter;stroke-miterlimit:4;stroke-opacity:1" />
    <path
       id="path1064"
       d="m 59.212638,242.34868 -1.150557,-0.20514 -0.71352,-0.9142 -0.548524,1.02568 -1.092581,0.3969 0.807173,0.8384 0.04014,1.16393 1.047986,-0.50839 1.119344,0.32108 -0.160547,-1.155 z m 0,0"
       style="fill:#211e1e;fill-opacity:1;fill-rule:nonzero;stroke:none;stroke-width:1.14164" />
    <path
       id="path1066"
       d="m 57.580452,243.87383 -0.780415,0.38352 -0.03122,-0.86961 -0.602038,-0.62433 0.811633,-0.29433 0.410277,-0.76703 0.535143,0.68231 0.851768,0.15162 -0.481629,0.71798 0.120407,0.86069 z m 0,0"
       style="fill:#f89c0c;fill-opacity:1;fill-rule:nonzero;stroke:#f89c0c;stroke-width:0.192937;stroke-linecap:butt;stroke-linejoin:miter;stroke-miterlimit:4;stroke-opacity:1" />
    <path
       id="path1068"
       d="m 59.159126,247.25861 -1.146099,-0.20068 -0.717983,-0.91866 -0.544061,1.02569 -1.097044,0.40136 0.811633,0.83393 0.04014,1.16839 1.043527,-0.51284 1.123797,0.32109 -0.165,-1.15057 z m 0,0"
       style="fill:#211e1e;fill-opacity:1;fill-rule:nonzero;stroke:none;stroke-width:1.14164" />
    <path
       id="path1070"
       d="m 57.526938,248.78822 -0.780415,0.37906 -0.03122,-0.86514 -0.602036,-0.62879 0.816094,-0.29433 0.405816,-0.76704 0.535143,0.68231 0.856229,0.15162 -0.486087,0.72244 0.120406,0.85623 z m 0,0"
       style="fill:#f89c0c;fill-opacity:1;fill-rule:nonzero;stroke:#f89c0c;stroke-width:0.192937;stroke-linecap:butt;stroke-linejoin:miter;stroke-miterlimit:4;stroke-opacity:1" />
    <path
       id="path1072"
       d="m 56.951659,251.89651 -1.146095,-0.20067 -0.717982,-0.91867 -0.544065,1.03015 -1.097039,0.3969 0.811633,0.83838 0.04014,1.16394 1.047988,-0.50839 1.119339,0.32109 -0.165002,-1.15502 z m 0,0"
       style="fill:#211e1e;fill-opacity:1;fill-rule:nonzero;stroke:none;stroke-width:1.14164" />
    <path
       id="path1074"
       d="m 55.319477,253.42613 -0.780418,0.37905 -0.02678,-0.86514 -0.606496,-0.62434 0.816091,-0.29432 0.410279,-0.76704 0.535141,0.6823 0.851768,0.15163 -0.486085,0.71798 0.124865,0.86069 z m 0,0"
       style="fill:#f89c0c;fill-opacity:1;fill-rule:nonzero;stroke:#f89c0c;stroke-width:0.192937;stroke-linecap:butt;stroke-linejoin:miter;stroke-miterlimit:4;stroke-opacity:1" />
    <path
       id="path1076"
       d="m 53.504451,255.47305 -1.150554,-0.20068 -0.713526,-0.91866 -0.548518,1.02569 -1.092586,0.40135 0.807175,0.83393 0.04014,1.1684 1.047991,-0.51285 1.119338,0.32109 -0.160541,-1.15502 z m 0,0"
       style="fill:#211e1e;fill-opacity:1;fill-rule:nonzero;stroke:none;stroke-width:1.14164" />
    <path
       id="path1078"
       d="m 51.872268,257.00266 -0.780415,0.37905 -0.03122,-0.86959 -0.602038,-0.62434 0.816097,-0.29432 0.405812,-0.76705 0.535144,0.68231 0.856226,0.15162 -0.486085,0.71799 0.120407,0.86068 z m 0,0"
       style="fill:#f89c0c;fill-opacity:1;fill-rule:nonzero;stroke:#f89c0c;stroke-width:0.192937;stroke-linecap:butt;stroke-linejoin:miter;stroke-miterlimit:4;stroke-opacity:1" />
    <path
       id="path1080"
       d="m 49.192094,257.96591 -1.146098,-0.20067 -0.717981,-0.91867 -0.548524,1.0257 -1.092581,0.40135 0.807175,0.83839 0.04014,1.16394 1.047991,-0.51285 1.119339,0.32109 -0.160542,-1.15056 z m 0,0"
       style="fill:#211e1e;fill-opacity:1;fill-rule:nonzero;stroke:none;stroke-width:1.14164" />
    <path
       id="path1082"
       d="m 47.559911,259.49554 -0.78042,0.37905 -0.03122,-0.86514 -0.602035,-0.62434 0.816091,-0.29879 0.405818,-0.76703 0.535144,0.68676 0.856226,0.14717 -0.486085,0.72244 0.120402,0.86068 z m 0,0"
       style="fill:#f89c0c;fill-opacity:1;fill-rule:nonzero;stroke:#f89c0c;stroke-width:0.192937;stroke-linecap:butt;stroke-linejoin:miter;stroke-miterlimit:4;stroke-opacity:1" />
    <path
       id="path1084"
       d="m 43.907561,259.02282 -1.146096,-0.20513 -0.717981,-0.9142 -0.544063,1.02568 -1.097042,0.40137 0.811633,0.83838 0.04014,1.15948 1.047987,-0.50839 1.119341,0.32108 -0.165002,-1.15501 z m 0,0"
       style="fill:#211e1e;fill-opacity:1;fill-rule:nonzero;stroke:none;stroke-width:1.14164" />
    <path
       id="path1086"
       d="m 42.275378,260.55244 -0.780415,0.37906 -0.03121,-0.86961 -0.602036,-0.62432 0.816094,-0.29434 0.405815,-0.76704 0.535144,0.6823 0.856226,0.15164 -0.486087,0.71797 0.120406,0.8607 z m 0,0"
       style="fill:#f89c0c;fill-opacity:1;fill-rule:nonzero;stroke:#f89c0c;stroke-width:0.192937;stroke-linecap:butt;stroke-linejoin:miter;stroke-miterlimit:4;stroke-opacity:1" />
    <path
       id="path1088"
       d="m 38.819249,257.79646 -1.146096,-0.20069 -0.713523,-0.91865 -0.548521,1.03014 -1.092583,0.3969 0.807173,0.83839 0.04014,1.16393 1.047988,-0.51284 1.11934,0.32555 -0.165004,-1.15502 z m 0,0"
       style="fill:#211e1e;fill-opacity:1;fill-rule:nonzero;stroke:none;stroke-width:1.14164" />
    <path
       id="path1090"
       d="m 37.187065,259.32607 -0.780417,0.38352 -0.02676,-0.8696 -0.602035,-0.62434 0.816092,-0.29433 0.405817,-0.76703 0.535142,0.6823 0.851768,0.15162 -0.481628,0.71799 0.120407,0.86069 z m 0,0"
       style="fill:#f89c0c;fill-opacity:1;fill-rule:nonzero;stroke:#f89c0c;stroke-width:0.192937;stroke-linecap:butt;stroke-linejoin:miter;stroke-miterlimit:4;stroke-opacity:1" />
    <path
       id="path1092"
       d="m 34.738788,255.78521 -1.146097,-0.20067 -0.717982,-0.91866 -0.544062,1.03014 -1.097042,0.3969 0.811632,0.83839 0.04014,1.16393 1.047988,-0.51284 1.11934,0.32109 -0.165002,-1.15057 z m 0,0"
       style="fill:#211e1e;fill-opacity:1;fill-rule:nonzero;stroke:none;stroke-width:1.14164" />
    <path
       id="path1094"
       d="m 33.106603,257.31483 -0.780416,0.37905 -0.02676,-0.86514 -0.606495,-0.62434 0.816093,-0.29878 0.410276,-0.76704 0.535143,0.68676 0.851768,0.15164 -0.486087,0.71797 0.120406,0.86069 z m 0,0"
       style="fill:#f89c0c;fill-opacity:1;fill-rule:nonzero;stroke:#f89c0c;stroke-width:0.192937;stroke-linecap:butt;stroke-linejoin:miter;stroke-miterlimit:4;stroke-opacity:1" />
    <path
       id="path1096"
       d="m 31.336173,252.12395 -1.146096,-0.20069 -0.717983,-0.91865 -0.544062,1.03014 -1.097041,0.39691 0.811632,0.83838 0.04014,1.16393 1.047987,-0.51284 1.119339,0.32108 -0.165001,-1.15055 z m 0,0"
       style="fill:#211e1e;fill-opacity:1;fill-rule:nonzero;stroke:none;stroke-width:1.14164" />
    <path
       id="path1098"
       d="m 29.70399,253.65356 -0.780417,0.37906 -0.03121,-0.86961 -0.602035,-0.62433 0.816091,-0.29433 0.405817,-0.76704 0.539602,0.68232 0.851769,0.15162 -0.486088,0.72244 0.120407,0.86069 z m 0,0"
       style="fill:#f89c0c;fill-opacity:1;fill-rule:nonzero;stroke:#f89c0c;stroke-width:0.192937;stroke-linecap:butt;stroke-linejoin:miter;stroke-miterlimit:4;stroke-opacity:1" />
    <path
       id="path1100"
       d="m 28.789788,247.43253 -1.146097,-0.20068 -0.717983,-0.91866 -0.548521,1.02569 -1.092582,0.40135 0.807173,0.8384 0.04014,1.16393 1.047987,-0.51284 1.11934,0.32108 -0.165002,-1.15055 z m 0,0"
       style="fill:#211e1e;fill-opacity:1;fill-rule:nonzero;stroke:none;stroke-width:1.14164" />
    <path
       id="path1102"
       d="m 27.157603,248.96214 -0.780416,0.37907 -0.03121,-0.86515 -0.602034,-0.6288 0.816091,-0.29432 0.405817,-0.76705 0.535142,0.68231 0.856228,0.15163 -0.486087,0.72245 0.120407,0.86068 z m 0,0"
       style="fill:#f89c0c;fill-opacity:1;fill-rule:nonzero;stroke:#f89c0c;stroke-width:0.192937;stroke-linecap:butt;stroke-linejoin:miter;stroke-miterlimit:4;stroke-opacity:1" />
    <path
       id="path1104"
       d="m 28.473162,242.33975 -1.146097,-0.20513 -0.717983,-0.91866 -0.544061,1.03014 -1.097042,0.39691 0.811633,0.83838 0.04014,1.16394 1.047988,-0.50839 1.11934,0.32109 -0.165003,-1.15502 z m 0,0"
       style="fill:#211e1e;fill-opacity:1;fill-rule:nonzero;stroke:none;stroke-width:1.14164" />
    <path
       id="path1106"
       d="m 26.840977,243.86491 -0.780417,0.38352 -0.03121,-0.86961 -0.602036,-0.62433 0.816093,-0.29878 0.405815,-0.76258 0.539603,0.6823 0.851768,0.15163 -0.486088,0.71798 0.120407,0.86069 z m 0,0"
       style="fill:#f89c0c;fill-opacity:1;fill-rule:nonzero;stroke:#f89c0c;stroke-width:0.192937;stroke-linecap:butt;stroke-linejoin:miter;stroke-miterlimit:4;stroke-opacity:1" />
    <path
       id="path1108"
       d="m 28.446404,237.81335 0.19176,-1.15949 -0.499466,-0.6377 -0.544061,1.02569 -1.097043,0.40135 0.811633,0.8384 0.04014,1.16393 1.047988,-0.51284 z m 0,0"
       style="fill:#211e1e;fill-opacity:1;fill-rule:nonzero;stroke:none;stroke-width:1.14164" />
    <path
       id="path1110"
       d="m 28.178833,238.74093 -0.588657,0.30324 -0.02676,-0.86515 -0.606495,-0.62432 0.816092,-0.2988 0.410275,-0.76704 0.231896,0.30325 z m 0,0"
       style="fill:#f89c0c;fill-opacity:1;fill-rule:nonzero;stroke:#f89c0c;stroke-width:0.192937;stroke-linecap:butt;stroke-linejoin:miter;stroke-miterlimit:4;stroke-opacity:1" />
    <path
       id="path1112"
       d="m 32.718625,232.67598 -1.146096,-0.20514 -0.717983,-0.91421 -0.548521,1.0257 -1.092583,0.40135 0.811633,0.8384 0.04014,1.15947 1.043528,-0.50838 1.119339,0.32108 -0.160543,-1.15502 z m 0,0"
       style="fill:#211e1e;fill-opacity:1;fill-rule:nonzero;stroke:none;stroke-width:1.14164" />
    <path
       id="path1114"
       d="m 31.08644,234.20559 -0.780415,0.37906 -0.03121,-0.86515 -0.602035,-0.62879 0.816092,-0.29433 0.405817,-0.76704 0.535142,0.68231 0.856228,0.15162 -0.486088,0.72244 0.120407,0.85623 z m 0,0"
       style="fill:#f89c0c;fill-opacity:1;fill-rule:nonzero;stroke:#f89c0c;stroke-width:0.192937;stroke-linecap:butt;stroke-linejoin:miter;stroke-miterlimit:4;stroke-opacity:1" />
    <path
       id="path1116"
       d="m 31.309417,243.856 c -0.0045,0 -0.0045,0 -0.0045,0 z m 0,0"
       style="fill:none;stroke:#f89c0c;stroke-width:0.192937;stroke-linecap:butt;stroke-linejoin:miter;stroke-miterlimit:4;stroke-opacity:1" />
    <path
       id="path1118"
       d="m 45.43272,247.61983 c 0.486087,-0.13378 0.495003,0.5396 0.182837,0.61542 -0.419195,0.10252 -0.495006,-0.53069 -0.182837,-0.61542"
       style="fill:#211e1e;fill-opacity:1;fill-rule:nonzero;stroke:none;stroke-width:1.14164" />
    <path
       id="path1120"
       d="m 44.188511,247.09806 c 0.481629,-0.16053 0.437034,0.53961 0.214059,0.64217 -0.04906,0.0223 -0.0892,0.0402 -0.0892,0.0402 -0.419195,0.10698 -0.432572,-0.58419 -0.124867,-0.68231"
       style="fill:#211e1e;fill-opacity:1;fill-rule:nonzero;stroke:none;stroke-width:1.14164" />
    <path
       id="path1122"
       d="m 45.579881,246.40684 c 0.499467,-0.13378 0.526224,0.52622 0.214058,0.61095 -0.410276,0.11154 -0.552979,-0.52176 -0.214058,-0.61095"
       style="fill:#211e1e;fill-opacity:1;fill-rule:nonzero;stroke:none;stroke-width:1.14164" />
    <path
       id="path1124"
       d="m 40.669951,238.55808 c 0.414735,-0.0803 0.869605,0.10252 1.10596,0.24973 0.04459,0.0312 0.401357,0.22299 0.619874,0.47717 0.294327,0.33893 0.575278,0.87407 0.704604,1.1461 0.209597,0.43704 0.410276,1.30664 0.428114,1.72138 0.02676,0.36122 0.0892,1.1461 -0.102563,1.6634 -0.01783,0.0803 -0.120409,0.058 -0.124868,-0.0223 0.0089,-0.4192 -0.09811,-1.47611 -0.09811,-1.47611 -0.160544,-0.86514 -0.735823,-2.55977 -1.551914,-3.0503 -0.120407,-0.0713 -0.218517,-0.10698 -0.356761,-0.16055 -0.615414,-0.24527 -1.132719,0.0491 -1.328938,0.57973 -0.0045,0.005 -0.133785,0.13825 -0.138245,0.14717 0,0 -0.111493,-0.10252 -0.04014,-0.3969 0.107028,-0.41919 0.414735,-0.67338 0.602035,-0.76257 0.0223,-0.0134 0.245274,-0.10697 0.28095,-0.11596"
       style="fill:#211e1e;fill-opacity:1;fill-rule:nonzero;stroke:none;stroke-width:1.14164" />
    <path
       id="path1126"
       d="m 38.471406,249.64891 c 0.298788,-0.0535 0.209598,0.12933 0.178381,0.2096 -0.05351,0.11594 -0.156082,0.16946 -0.17392,0.25865 0.222975,0.17393 0.771497,0.54852 1.043527,0.64217 0.111492,0.0402 0.816092,0.30325 1.315559,0.34784 0.597575,0.0134 1.658942,-0.20514 2.180705,-0.43257 0.245274,-0.10698 0.463791,-0.24974 0.548521,-0.23636 0,0 0.08473,0.12933 -0.07582,0.26758 -0.200679,0.16947 -0.414737,0.34338 -0.628793,0.43257 -0.129326,0.0491 -0.285409,0.11154 -0.387977,0.18284 -0.04014,0.0311 -0.04459,0.12487 -0.08027,0.165 -0.236355,0.27203 -0.432573,0.59312 -0.682308,0.85178 -0.521762,0.52621 -1.239746,1.47164 -2.140568,1.54299 -1.279883,0.10697 -0.882986,-2.0826 -1.123799,-3.09045 -0.03568,-0.15608 -0.120408,-0.25866 -0.222977,-0.42366 -0.18284,0.12487 -0.236355,0.41028 -0.307707,0.46825 -0.178381,0.14271 -0.258651,0.0669 -0.254192,-0.13379 0.08473,-0.49054 0.222976,-0.71352 0.437032,-0.88298 0.06689,-0.0535 0.254194,-0.14716 0.3746,-0.16946"
       style="fill:#211e1e;fill-opacity:1;fill-rule:nonzero;stroke:none;stroke-width:1.14164" />
    <path
       id="path1128"
       d="m 40.197241,252.37369 c -0.338924,0.0669 -0.923121,0.22742 -1.065826,0.4727 -0.129325,0.21851 0.06244,0.7715 0.624333,0.63771 0.218518,-0.0491 0.633253,-0.33892 0.807174,-0.50839 0,0 0.280949,-0.3523 0.3746,-0.44595 0.04014,-0.0714 -0.03121,-0.10252 -0.04459,-0.15162 -0.214057,-0.0267 -0.46825,-0.0491 -0.695686,-0.005"
       style="fill:#eb1923;fill-opacity:1;fill-rule:nonzero;stroke:none;stroke-width:1.14164" />
    <path
       id="path1130"
       d="m 40.197241,252.37369 c -0.338924,0.0669 -0.923121,0.22742 -1.065826,0.4727 -0.129325,0.21851 0.06244,0.7715 0.624333,0.63771 0.218516,-0.0491 0.633253,-0.33892 0.807173,-0.50839 0,0 0.28095,-0.3523 0.3746,-0.44595 0.04014,-0.0714 -0.03121,-0.10252 -0.04459,-0.15162 -0.214056,-0.0267 -0.468249,-0.0491 -0.695685,-0.005 z m 0,0"
       style="fill:none;stroke:#eb1923;stroke-width:0.192937;stroke-linecap:butt;stroke-linejoin:miter;stroke-miterlimit:4;stroke-opacity:1" />
    <path
       id="path1132"
       d="m 37.298553,254.51425 c -0.08473,-0.10252 -0.325546,-0.12487 -0.637711,-0.0892 0.187299,-6.24332 -0.365682,-8.59795 -2.100435,-12.57138 -0.0892,-0.20515 -0.330004,-0.2988 -0.535142,-0.2096 -0.209598,0.0892 -0.303248,0.33 -0.209598,0.53514 1.699078,3.89316 2.225301,6.18981 2.024623,12.43761 -0.410276,0.13824 -0.829472,0.34338 -1.141638,0.59757 -0.472709,0.38351 -0.967715,1.11488 -0.437033,1.77043 0.503926,0.61541 1.351235,0.31662 1.819484,-0.0669 0.789336,-0.64217 1.413669,-2.16286 1.21745,-2.40367"
       style="fill:#211e1e;fill-opacity:1;fill-rule:nonzero;stroke:none;stroke-width:1.14164" />
    <path
       id="path1134"
       d="m 45.263257,256.31143 c -0.38798,0.46379 -0.735822,1.27543 -0.0892,1.81503 0.610955,0.51285 1.382451,0.058 1.770431,-0.40582 0.655547,-0.78041 0.981091,-2.3903 0.740277,-2.59098 -0.285406,-0.24081 -1.734751,0.36568 -2.421517,1.18177"
       style="fill:#211e1e;fill-opacity:1;fill-rule:nonzero;stroke:none;stroke-width:1.14164" />
    <path
       id="path1136"
       d="m 41.588612,256.26239 c -0.387979,0.46379 -0.735821,1.27541 -0.0892,1.81502 0.606494,0.51284 1.38245,0.058 1.770428,-0.40582 0.65555,-0.78041 0.981096,-2.3903 0.740283,-2.59098 -0.285412,-0.24082 -1.734754,0.36568 -2.421523,1.18178"
       style="fill:#211e1e;fill-opacity:1;fill-rule:nonzero;stroke:none;stroke-width:1.14164" />
    <path
       id="path1138"
       d="m 38.020995,255.99034 c -0.437032,0.42366 -0.865147,1.19516 -0.28095,1.79719 0.557441,0.57528 1.369073,0.20068 1.806106,-0.22297 0.731362,-0.70906 1.221909,-2.27436 1.003392,-2.49733 -0.263112,-0.27203 -1.76597,0.18284 -2.528548,0.92311"
       style="fill:#211e1e;fill-opacity:1;fill-rule:nonzero;stroke:none;stroke-width:1.14164" />
    <path
       id="path1140"
       d="m 50.819822,242.83477 c 0.09365,-0.33002 0.133783,-0.67785 0.102563,-1.03461 -0.142706,-1.62327 -1.609889,-2.81842 -3.286665,-2.67126 -1.672323,0.14717 -2.912068,1.57868 -2.769365,3.20194 0.03568,0.39244 0.147164,0.75811 0.321085,1.08813 -1.105961,0.78487 -1.975567,1.06582 -3.52748,1.12826 -0.222975,0.009 -0.557439,0.35675 -0.548521,0.57973 0.0089,0.22744 0.245274,0.26756 0.468251,0.25865 1.716913,-0.0714 2.845174,-0.42365 4.089382,-1.30664 0.61541,0.63771 1.511776,1.00785 2.483951,0.92312 0.994473,-0.0892 1.832864,-0.63325 2.318948,-1.39583 1.547458,1.31556 4.624525,4.94561 0.726903,10.71623 -0.508383,0.005 -1.632183,0.54406 -2.211922,1.23529 -0.387977,0.45933 -0.735819,1.27543 -0.09365,1.81502 0.615413,0.51285 1.386908,0.058 1.774888,-0.40582 0.330007,-0.39244 0.575278,-0.99447 0.709062,-1.52069 0.02678,-0.0223 0.05798,-0.0446 0.08027,-0.0758 5.083853,-6.89443 1.047986,-11.18002 -0.637714,-12.53572"
       style="fill:#211e1e;fill-opacity:1;fill-rule:nonzero;stroke:none;stroke-width:1.14164" />
    <path
       id="path1142"
       d="m 49.214393,241.25609 c -0.04459,0.66893 -0.57082,1.22192 -1.163939,1.23975 -0.597572,0.0178 -1.039066,-0.51285 -0.99001,-1.17731 0.04905,-0.66894 0.57082,-1.22191 1.168392,-1.23975 0.593119,-0.0178 1.034611,0.51284 0.985557,1.17731"
       style="fill:#ffffff;fill-opacity:1;fill-rule:nonzero;stroke:none;stroke-width:1.14164" />
    <path
       id="path1144"
       d="m 39.269661,244.90398 c -0.267571,-0.98109 -0.998933,-1.73475 -1.636644,-1.67678 -0.441492,0.0402 -0.820552,0.56189 -0.74474,1.19961 -0.129327,-0.37014 -0.303247,-1.04799 -0.338923,-1.24421 -0.09811,-0.52621 -0.173922,-0.90973 -0.08473,-1.66785 0.03568,-0.28987 0.09811,-0.57528 0.182841,-0.80272 0.191759,-0.52623 0.414735,-0.90082 1.02569,-0.82055 0.151623,0.0178 0.512844,0.22297 0.651089,0.36568 0.107028,0.0981 0.205139,0.16054 0.28541,0.0936 -0.236355,-0.45934 -0.726902,-0.8384 -1.39583,-0.76258 -0.535143,0.058 -0.664468,0.29879 -0.869607,0.6377 -0.423655,0.70461 -0.405816,2.14949 -0.343382,2.64896 0.07135,0.50392 0.45933,1.74368 1.021229,2.52855 0.05797,0.0803 0.124867,0.16054 0.196219,0.24081 0.258653,0.66893 0.93204,1.18178 1.382452,1.14164 0.637711,-0.0535 0.936499,-0.90083 0.668928,-1.88191"
       style="fill:#211e1e;fill-opacity:1;fill-rule:nonzero;stroke:none;stroke-width:1.14164" />
    <path
       id="path1146"
       d="m 42.07916,245.18493 c -0.606496,0.0491 -1.266505,-0.6377 -1.467184,-1.53407 -0.205137,-0.90083 0.120407,-1.6634 0.726902,-1.71246 0.606496,-0.0491 1.266504,0.64217 1.467183,1.53854 0.205136,0.89635 -0.120407,1.6634 -0.726901,1.70799"
       style="fill:#211e1e;fill-opacity:1;fill-rule:nonzero;stroke:none;stroke-width:1.14164" />
    <path
       id="path1148"
       d="m 44.380271,237.97834 0.0044,-0.005 c 0,0 -0.0044,0 -0.0044,0 0,0 0,0 0,0.005"
       style="fill:#211e1e;fill-opacity:1;fill-rule:nonzero;stroke:none;stroke-width:1.14164" />
    <path
       id="path1150"
       d="m 44.340136,237.8847 0.01339,0.005 c -0.0089,-0.005 -0.882983,-0.51731 -3.456128,-0.18285 -0.936499,0.12486 -2.046919,0.29879 -3.1618,0.70014 0,0 -0.07135,0.0178 -0.07135,0.0178 -0.138245,0.0311 -0.200678,0.19175 -0.173921,0.32554 0.03121,0.13379 0.196219,0.22298 0.338923,0.19176 l 0.294329,-0.0803 c 1.721375,-0.50838 3.795053,-1.00339 6.180896,-0.84285 0.04014,0.005 0.06689,-0.0134 0.07582,-0.0446 0.0089,-0.0178 0.0089,-0.0356 0,-0.0491 -0.0044,-0.0223 -0.0223,-0.0356 -0.04014,-0.0402"
       style="fill:#211e1e;fill-opacity:1;fill-rule:nonzero;stroke:none;stroke-width:1.14164" />
    <path
       id="path1152"
       d="m 43.662287,235.74413 -0.0044,0.005 c 0,0 0.0044,0 0.0044,0 z m 0,0"
       style="fill:#211e1e;fill-opacity:1;fill-rule:nonzero;stroke:none;stroke-width:1.14164" />
    <path
       id="path1154"
       d="m 36.750032,239.2181 c -0.07582,-0.10698 -0.240815,-0.16947 -0.361221,-0.0847 0,0 -0.06244,0.0402 -0.05797,0.0356 -1.083663,0.57973 -1.997865,1.29325 -2.751524,1.90867 -2.064758,1.70353 -2.314491,2.68909 -2.314491,2.69801 l 0.0045,-0.0134 c -0.0089,0.0178 -0.0089,0.0402 0,0.058 0.0045,0.0178 0.0223,0.0311 0.04014,0.0356 0.01338,0.005 0.04906,0.0134 0.08473,-0.0267 1.569751,-1.88637 3.402613,-3.11274 4.985743,-4.06708 0,0 0.272031,-0.16946 0.272031,-0.16946 0.111492,-0.0758 0.178381,-0.25865 0.09811,-0.3746"
       style="fill:#211e1e;fill-opacity:1;fill-rule:nonzero;stroke:none;stroke-width:1.14164" />
    <path
       id="path1156"
       d="m 38.181538,236.79657 c -0.0223,-0.39244 0.01784,-0.98555 0.0223,-0.99894 0.0223,-0.11153 0.04459,-0.29877 0.06244,-0.56635 0.209597,0.11595 1.105961,0.20959 1.333397,0.20068 0.463789,-0.0223 1.034608,-0.24082 1.377991,-0.46824 1.030148,-0.68678 1.030148,-2.30559 0.09811,-3.23317 -0.361221,-0.36121 -1.565291,-0.78487 -1.997865,-0.83392 -0.437032,-0.0491 -0.994472,0.009 -1.449344,0.10252 -0.459331,0.0892 -0.820551,0.22297 -1.141637,0.45041 -0.325545,0.23635 -0.860687,1.09258 -1.043527,1.68125 -0.107029,0.36121 -0.205139,0.81608 -0.240815,1.16838 -0.102565,1.0034 0.0892,2.28328 0.0892,2.28328 0.03121,0.1427 0.133786,0.70015 0.258653,0.90974 0.09365,0.16947 0.36568,0.22298 0.437033,0.2096 0.27649,-0.0624 0.285409,-0.25865 0.17838,-0.70906 -0.312166,-1.28881 -0.27203,-2.09152 0.06689,-3.54532 0.28095,-1.17732 0.789334,-1.34232 0.954337,-1.40921 0.548521,-0.21405 1.163935,-0.35676 1.57867,-0.32554 0.142705,0.009 0.717983,0.12485 0.802714,0.15162 0.477169,0.12932 0.998933,0.45933 1.248666,0.8696 0.191759,0.32109 0.209597,0.76705 0.06244,1.07029 -0.512844,1.02123 -2.211922,0.77596 -2.626657,0.70014 -0.321086,-0.058 -0.704604,-0.21851 -0.713524,-0.21851 -0.187299,-0.0892 -0.263112,-0.13825 -0.45487,-0.15163 -0.08473,0.24973 -0.04906,0.29434 0.133785,0.46379 0.124866,0.10697 0.245274,0.20514 0.3746,0.31217 -0.142705,0.47271 -0.200678,0.95879 -0.19176,1.62327 0,0.17392 -0.02676,0.44595 0.01784,0.70906 0.01338,0.0847 0.04906,0.20068 0.08027,0.26311 0,0 -0.151624,0.0803 -0.227436,0.12933 0,0 -0.06689,0.0356 -0.06244,0.0356 -0.129326,0.0625 -0.156083,0.23189 -0.09811,0.35676 0.05797,0.12041 0.236354,0.17391 0.37014,0.11154 0,0 0.272031,-0.14271 0.272031,-0.14271 1.565292,-0.87407 3.478426,-1.81948 5.837512,-2.18962 0.04014,-0.005 0.06689,-0.0267 0.06689,-0.058 0.0044,-0.0178 0,-0.0402 -0.0089,-0.0535 -0.01339,-0.0178 -0.03121,-0.0267 -0.04906,-0.0267 l 0.0089,0.005 c -0.0044,-0.005 -0.967714,-0.31217 -3.407072,0.58419 -0.610954,0.22298 -1.284342,0.57974 -1.980027,0.9365 0,0 -0.03568,-0.26756 -0.04014,-0.3969"
       style="fill:#211e1e;fill-opacity:1;fill-rule:nonzero;stroke:none;stroke-width:1.14164" />
    <path
       id="path1158"
       d="m 33.913777,238.85687 c -0.0223,-0.0624 -0.0892,-0.14271 -0.133786,-0.23189 -0.272031,-0.53069 -0.958796,-1.12826 -1.288802,-1.40475 -0.182839,-0.14717 0.02676,-0.80717 -0.298788,-0.50838 -0.04906,0.0446 -0.151623,0.17391 -0.169461,0.23189 -0.303247,0.95879 -0.499466,1.45825 -1.377991,1.95327 -0.597577,0.33892 -1.703538,0.40135 -1.980027,-0.23635 -0.428114,-0.99448 0.46379,-2.45274 0.481628,-2.47504 0.544061,-0.76704 1.20407,-1.32448 2.015703,-1.48502 0.972175,-0.19622 2.203003,1.35123 2.457195,1.65002 0.258653,0.29433 1.181774,1.71246 1.270964,1.73029 0.08473,0.0178 0.0892,0.0312 0.205137,0.0178 0.414736,-0.0446 0.272031,-0.43258 0.111493,-0.73136 -0.321086,-0.57528 -0.628792,-1.03461 -1.052447,-1.57421 -0.593116,-0.75811 -1.079203,-1.41367 -1.877458,-1.71246 -0.722442,-0.27203 -1.542993,-0.12487 -2.162867,0.15609 -0.517304,0.29879 -1.128258,0.77149 -1.444885,1.23082 -0.138245,0.20514 -0.27203,0.32555 -0.46379,0.66447 -0.512845,0.90083 -0.628792,2.08259 -0.254192,3.03247 0.258651,0.49947 0.914201,0.76704 1.016771,0.79826 0.392437,0.11594 1.1015,0.0446 1.355694,-0.058 1.056906,-0.41027 1.797186,-0.93205 2.091514,-1.84624 0.156084,0.23189 0.414736,0.54852 0.561899,0.76257 0.08473,0.12488 0.169463,0.22744 0.245275,0.30771 0,0 -0.231896,0.13825 -0.361221,0.19622 -2.345709,1.10597 -2.805038,2.00679 -2.809499,2.0157 l 0.0089,-0.0134 c -0.01338,0.0178 -0.01784,0.0402 -0.01784,0.058 0.0045,0.0178 0.01338,0.0356 0.03121,0.0446 0.0223,0.0178 0.05797,0.0178 0.0892,-0.009 1.922052,-1.41813 3.937756,-2.11827 5.659131,-2.61774 0,0 0.294328,-0.0936 0.294328,-0.0936 0.138245,-0.0491 0.222976,-0.21406 0.178381,-0.34339 -0.04906,-0.12487 -0.1873,-0.22743 -0.321086,-0.18284 0,0 -0.07135,0.0223 -0.06689,0.0223 -0.735821,0.17392 -1.993406,0.65109 -1.993406,0.65109"
       style="fill:#211e1e;fill-opacity:1;fill-rule:nonzero;stroke:none;stroke-width:1.14164" />
    <path
       id="path1160"
       d="m 49.655882,245.80034 c 1.186236,2.82735 0.289873,5.75724 -0.958797,8.12079 -0.01336,0.0402 0.0089,0.0847 0.04906,0.10252 0.04014,0.0222 0.08027,0.009 0.09811,-0.0312 0.914201,-1.65894 1.792729,-3.42936 1.810564,-5.45399 0.0044,-0.94988 -0.401354,-1.91313 -0.914198,-2.77383 -0.01336,-0.0267 -0.0446,-0.0402 -0.07135,-0.0312 -0.02678,0.009 -0.04014,0.0402 -0.02678,0.0669 z m 0,0"
       style="fill:#211e1e;fill-opacity:1;fill-rule:nonzero;stroke:none;stroke-width:1.14164" />
  </g>
</svg>
